<?xml version="1.0" encoding="UTF-8" standalone="no"?>
<svg
   xmlns:dc="http://purl.org/dc/elements/1.1/"
   xmlns:cc="http://creativecommons.org/ns#"
   xmlns:rdf="http://www.w3.org/1999/02/22-rdf-syntax-ns#"
   xmlns:svg="http://www.w3.org/2000/svg"
   xmlns="http://www.w3.org/2000/svg"
   viewBox="0 0 214.89333 52.466667"
   height="52.466667"
   width="214.89333"
   xml:space="preserve"
   id="svg2"
   version="1.1"><metadata
     id="metadata8"><rdf:RDF><cc:Work
         rdf:about=""><dc:format>image/svg+xml</dc:format><dc:type
           rdf:resource="http://purl.org/dc/dcmitype/StillImage" /></cc:Work></rdf:RDF></metadata><defs
     id="defs6" /><g
     transform="matrix(1.3333333,0,0,-1.3333333,0,52.466667)"
     id="g10"><g
       transform="scale(0.1)"
       id="g12"><path
         id="path14"
         style="fill:#231f20;fill-opacity:1;fill-rule:nonzero;stroke:none"
         d="m 472.219,393.5 h 78.679 V 0 h -78.679 v 393.5" /><path
         id="path16"
         style="fill:#231f20;fill-opacity:1;fill-rule:nonzero;stroke:none"
         d="M 314.805,78.6914 0,78.7109 V 0 H 393.496 V 393.5 H 0 V 314.805 H 314.805 V 78.6914" /><path
         id="path18"
         style="fill:#231f20;fill-opacity:1;fill-rule:nonzero;stroke:none"
         d="M 708.301,314.805 H 1023.12 V 393.5 H 629.602 V 0 H 1023.12 V 78.7109 L 708.301,78.6914 V 314.805" /><path
         id="path20"
         style="fill:#231f20;fill-opacity:1;fill-rule:nonzero;stroke:none"
         d="m 1495.29,393.5 h -393.48 v -78.684 h 393.48 V 393.5" /><path
         id="path22"
         style="fill:#231f20;fill-opacity:1;fill-rule:nonzero;stroke:none"
         d="m 1495.29,236.094 h -393.48 v -78.692 h 393.48 v 78.692" /><path
         id="path24"
         style="fill:#231f20;fill-opacity:1;fill-rule:nonzero;stroke:none"
         d="M 1495.29,78.6914 H 1101.81 V 0 h 393.48 v 78.6914" /><path
         id="path26"
         style="fill:#231f20;fill-opacity:1;fill-rule:nonzero;stroke:none"
         d="m 1534.67,393.5 h 31.78 v -5.898 h -12.47 v -33.457 h -6.9 v 33.457 h -12.41 v 5.898" /><path
         id="path28"
         style="fill:#231f20;fill-opacity:1;fill-rule:nonzero;stroke:none"
         d="m 1570.92,393.5 h 9.69 l 10.83,-30.785 h 0.16 l 10.54,30.785 h 9.54 v -39.355 h -6.49 v 30.41 h -0.15 l -10.92,-30.41 h -5.61 l -10.93,30.41 h -0.12 v -30.41 h -6.54 V 393.5" /></g></g></svg>