<?xml version="1.0" encoding="UTF-8" standalone="no"?>
<svg
   xmlns:dc="http://purl.org/dc/elements/1.1/"
   xmlns:cc="http://creativecommons.org/ns#"
   xmlns:rdf="http://www.w3.org/1999/02/22-rdf-syntax-ns#"
   xmlns:svg="http://www.w3.org/2000/svg"
   xmlns="http://www.w3.org/2000/svg"
   xmlns:sodipodi="http://sodipodi.sourceforge.net/DTD/sodipodi-0.dtd"
   xmlns:inkscape="http://www.inkscape.org/namespaces/inkscape"
   version="1.1"
   id="Layer_1"
   x="0px"
   y="0px"
   viewBox="0 0 61.81739 85.243507"
   xml:space="preserve"
   sodipodi:docname="java-logo.svg"
   width="61.81739"
   height="85.243507"
   inkscape:version="1.0.2 (e86c8708, 2021-01-15)"><metadata
   id="metadata323"><rdf:RDF><cc:Work
       rdf:about=""><dc:format>image/svg+xml</dc:format><dc:type
         rdf:resource="http://purl.org/dc/dcmitype/StillImage" /></cc:Work></rdf:RDF></metadata><defs
   id="defs321" /><sodipodi:namedview
   pagecolor="#ffffff"
   bordercolor="#666666"
   borderopacity="1"
   objecttolerance="10"
   gridtolerance="10"
   guidetolerance="10"
   inkscape:pageopacity="0"
   inkscape:pageshadow="2"
   inkscape:window-width="1280"
   inkscape:window-height="755"
   id="namedview319"
   showgrid="false"
   inkscape:zoom="3.9466667"
   inkscape:cx="23.811622"
   inkscape:cy="60.356486"
   inkscape:window-x="0"
   inkscape:window-y="23"
   inkscape:window-maximized="0"
   inkscape:current-layer="Layer_1" />
<style
   type="text/css"
   id="style310">
	.st0{fill:#00758F;}
	.st1{fill:#F29111;}
</style>
<g
   id="g316"
   transform="translate(-41.56,-32.38)">
	<path
   class="st0"
   d="m 84.43,91.58 c -2.19,0.55 -6.85,1.51 -13.7,1.51 -6.71,0 -12.19,-1.1 -12.19,-2.47 0,-0.96 1.1,-1.37 1.1,-1.37 H 59.5 c -3.29,0.55 -6.17,1.51 -6.17,2.74 0,2.33 9.18,4.11 17.4,4.11 7.12,0 13.84,-1.1 16.85,-2.74 z m -22.6,7.26 c -1.51,0.27 -4.66,1.1 -4.66,2.6 0,2.19 6.85,3.84 13.56,3.84 9.18,0 13.02,-2.33 13.15,-2.47 l -3.84,-2.19 c -1.64,0.41 -4.38,0.96 -9.32,0.96 -5.48,0 -9.04,-0.96 -9.04,-2.06 0,-0.27 0.14,-0.41 0.41,-0.69 z M 99.37,84.18 c -0.27,4.93 -4.8,7.95 -9.32,10.55 L 90.46,95 c 4.8,-1.37 13.56,-5.34 12.88,-11.51 -0.41,-3.01 -3.15,-5.21 -6.71,-5.21 -1.1,0 -2.19,0.27 -3.01,0.41 v 0 l -0.14,0.41 c 3.01,-0.54 6.03,1.93 5.89,5.08 z M 70.6,113.09 c 12.74,-0.14 27.13,-2.6 26.99,-6.85 0,-0.82 -0.41,-1.37 -0.96,-1.64 l -0.14,0.27 c -1.1,3.29 -11.1,5.62 -26.03,5.75 -9.59,0.14 -22.74,-2.19 -22.74,-4.8 0,-2.6 6.17,-4.11 6.17,-4.11 l -0.41,-0.27 c -4.25,0.55 -11.92,2.6 -11.92,5.48 0.12,4.25 17.94,6.31 29.04,6.17 z m -1.37,3.15 c -5.07,0.14 -11.24,-0.41 -16.58,-1.23 l -0.41,0.27 c 5.21,1.51 12.47,2.47 20.42,2.33 15.62,-0.14 28.23,-3.97 28.5,-8.63 l -0.14,-0.14 c -1.1,1.23 -7.82,7.13 -31.79,7.4 z M 49.63,83.08 c 0,-2.33 8.91,-3.7 13.02,-3.97 l 0.41,0.27 c -1.64,0.27 -7.95,1.51 -7.95,2.88 0,1.64 9.87,2.74 15.48,2.74 9.73,0 16.3,-1.51 18.09,-1.92 l 2.47,1.51 C 89.5,85.41 82.1,87.6 70.6,87.6 57.85,87.33 49.63,84.86 49.63,83.08 Z"
   id="path312" />
	<path
   class="st1"
   d="M 88.41,50.06 H 88.27 C 84.3,51.43 72.38,56.09 72.38,65 c 0,4.93 4.93,7.81 4.93,12.47 0,1.64 -0.96,3.29 -1.64,4.11 l 0.41,0.27 c 2.06,-1.37 5.62,-4.25 5.62,-7.95 0,-3.15 -4.25,-6.85 -4.25,-10.96 -0.28,-6.3 8.08,-11.23 10.96,-12.88 z M 82.52,38.55 c 0,13.02 -17.95,18.09 -17.95,27.4 0,6.58 4.25,10.55 6.71,13.15 l -0.14,0.14 C 68.13,77.32 60.18,72.53 60.18,64.72 c 0,-11.1 20.55,-16.3 20.55,-28.77 0,-1.51 -0.27,-2.74 -0.41,-3.43 l 0.27,-0.14 c 0.69,0.97 1.93,3.02 1.93,6.17 z"
   id="path314" />
</g>
</svg>
