<?xml version="1.0" encoding="UTF-8" standalone="no"?>
<svg
   xmlns:dc="http://purl.org/dc/elements/1.1/"
   xmlns:cc="http://creativecommons.org/ns#"
   xmlns:rdf="http://www.w3.org/1999/02/22-rdf-syntax-ns#"
   xmlns:svg="http://www.w3.org/2000/svg"
   xmlns="http://www.w3.org/2000/svg"
   xmlns:sodipodi="http://sodipodi.sourceforge.net/DTD/sodipodi-0.dtd"
   xmlns:inkscape="http://www.inkscape.org/namespaces/inkscape"
   version="1.0"
   width="889.41681pt"
   height="205.80289pt"
   viewBox="0 0 889.41681 205.80289"
   preserveAspectRatio="xMidYMid meet"
   id="svg375"
   sodipodi:docname="logo-2_min.svg"
   inkscape:version="1.0.2 (e86c8708, 2021-01-15)">
  <defs
     id="defs379" />
  <sodipodi:namedview
     pagecolor="#ffffff"
     bordercolor="#666666"
     borderopacity="1"
     objecttolerance="10"
     gridtolerance="10"
     guidetolerance="10"
     inkscape:pageopacity="0"
     inkscape:pageshadow="2"
     inkscape:window-width="1280"
     inkscape:window-height="755"
     id="namedview377"
     showgrid="false"
     inkscape:zoom="0.7541806"
     inkscape:cx="592.55574"
     inkscape:cy="135.86667"
     inkscape:window-x="0"
     inkscape:window-y="23"
     inkscape:window-maximized="1"
     inkscape:current-layer="svg375" />
  <metadata
     id="metadata333">
Created by potrace 1.16, written by Peter Selinger 2001-2019
<rdf:RDF>
  <cc:Work
     rdf:about="">
    <dc:format>image/svg+xml</dc:format>
    <dc:type
       rdf:resource="http://purl.org/dc/dcmitype/StillImage" />
  </cc:Work>
</rdf:RDF>
</metadata>
  <g
     transform="matrix(0.1,0,0,-0.1,-4.0831913,205.9)"
     fill="#000000"
     stroke="none"
     id="g373">
    <path
       d="m 69,2041 -24,-19 -3,-751 c -3,-830 -5,-802 58,-816 48,-11 88,11 100,54 8,24 10,276 8,774 l -3,739 -24,19 c -30,24 -82,24 -112,0 z"
       id="path335" />
    <path
       d="m 322,1880 c -12,-5 -27,-21 -32,-35 -6,-16 -10,-245 -10,-594 0,-560 0,-569 21,-595 16,-21 29,-26 63,-26 81,0 76,-39 76,627 0,557 -1,591 -18,606 -23,21 -71,29 -100,17 z"
       id="path337" />
    <path
       d="m 540,1690 c -19,-19 -20,-33 -20,-429 0,-398 1,-409 21,-435 26,-33 88,-37 119,-6 19,19 20,33 20,433 0,471 2,457 -76,457 -31,0 -50,-6 -64,-20 z"
       id="path339" />
    <path
       d="m 785,1515 -25,-24 v -233 c 0,-275 1,-278 80,-278 79,0 80,3 80,281 v 238 l -26,20 c -36,28 -79,27 -109,-4 z"
       id="path341" />
    <path
       d="m 1020,1360 c -17,-17 -20,-33 -20,-103 0,-74 3,-86 23,-105 32,-30 87,-29 115,1 19,20 22,35 22,105 0,99 -15,122 -80,122 -27,0 -47,-7 -60,-20 z"
       id="path343" />
    <path
       d="m 2758,1347 c -69,-20 -121,-61 -154,-120 -28,-51 -29,-56 -32,-224 -3,-136 -1,-183 12,-227 39,-133 162,-196 342,-175 120,15 201,86 224,196 8,34 11,117 8,212 -3,132 -7,163 -25,201 -25,55 -75,103 -128,126 -53,22 -187,28 -247,11 z m 204,-143 c 56,-29 63,-53 63,-224 0,-176 -9,-205 -69,-234 -49,-23 -142,-21 -184,4 -52,32 -62,69 -62,230 0,146 7,176 46,212 43,38 144,44 206,12 z"
       id="path345" />
    <path
       d="m 3630,1345 c -57,-18 -114,-65 -143,-118 -21,-40 -22,-54 -22,-247 0,-192 1,-208 22,-246 49,-91 136,-134 273,-134 101,0 161,21 221,79 57,56 69,93 69,223 0,86 -2,99 -19,108 -21,11 -258,14 -285,4 -12,-5 -16,-21 -16,-65 v -59 h 96 97 l -6,-45 c -8,-77 -62,-115 -162,-115 -69,0 -115,18 -140,56 -18,26 -20,47 -20,184 0,183 8,211 68,242 32,16 54,19 105,16 60,-4 67,-7 101,-44 20,-22 41,-48 46,-59 10,-17 13,-17 62,-1 66,22 73,41 36,108 -30,55 -88,100 -153,118 -50,14 -177,11 -230,-5 z"
       id="path347" />
    <path
       d="m 4537,1350 c -93,-24 -151,-73 -182,-153 -14,-37 -16,-75 -13,-238 3,-189 4,-195 30,-239 49,-85 126,-121 255,-121 106,-1 170,20 222,72 64,65 73,107 69,326 -3,170 -5,192 -25,228 -28,52 -58,79 -117,106 -55,24 -178,34 -239,19 z m 148,-131 c 24,-6 55,-24 72,-41 l 28,-29 3,-159 c 4,-178 -3,-205 -61,-240 -41,-25 -135,-27 -183,-4 -60,29 -69,59 -69,229 0,191 14,223 110,246 44,10 52,10 100,-2 z"
       id="path349" />
    <path
       d="m 6670,1344 c -104,-28 -163,-101 -163,-203 0,-126 66,-175 266,-201 159,-20 197,-45 197,-130 0,-87 -59,-130 -183,-132 -93,-2 -148,25 -192,94 -26,41 -34,47 -55,42 -49,-10 -55,-27 -30,-78 50,-103 153,-154 293,-142 95,8 166,36 207,82 52,60 65,157 29,230 -34,71 -61,82 -299,124 -81,15 -116,32 -135,70 -21,40 -19,71 8,111 41,62 170,87 252,50 40,-18 105,-82 105,-103 0,-12 59,-3 73,11 32,32 -66,147 -148,174 -59,21 -151,21 -225,1 z"
       id="path351" />
    <path
       d="m 1865,1328 c -3,-7 -4,-171 -3,-363 l 3,-350 220,-3 c 198,-2 221,-1 232,15 16,20 17,67 3,94 -10,17 -23,19 -165,19 h -155 l -2,298 -3,297 -63,3 c -44,2 -64,-1 -67,-10 z"
       id="path353" />
    <path
       d="m 5252,978 3,-363 34,-3 c 20,-2 37,2 42,10 10,15 12,678 3,702 -4,11 -19,16 -45,16 h -39 z"
       id="path355" />
    <path
       d="m 5692,978 3,-363 34,-3 c 20,-2 37,2 42,10 5,7 9,68 9,136 v 122 h 123 c 75,1 136,6 160,14 162,58 206,269 80,388 -53,51 -87,58 -278,58 h -175 z m 365,266 c 46,-34 73,-82 73,-129 0,-47 -27,-95 -73,-129 -25,-18 -46,-21 -158,-25 l -129,-3 v 157 157 l 129,-3 c 112,-4 133,-7 158,-25 z"
       id="path357" />
    <path
       d="m 7364,1326 c -3,-8 -4,-133 -2,-278 l 3,-263 28,-58 c 47,-94 113,-128 254,-128 124,0 199,38 246,126 21,38 22,55 25,328 l 3,287 h -40 -40 l -3,-257 c -3,-246 -4,-260 -26,-300 -12,-24 -41,-55 -64,-70 -35,-24 -52,-28 -109,-28 -60,0 -71,3 -105,31 -81,65 -78,54 -84,352 l -5,267 -38,3 c -26,2 -39,-1 -43,-12 z"
       id="path359" />
    <path
       d="M 8270,974 V 609 l 38,3 37,3 v 286 286 l 56,-106 c 31,-58 81,-149 112,-201 51,-89 57,-95 87,-95 31,0 36,6 107,130 42,72 92,163 113,203 l 38,72 -6,-263 c -3,-145 -2,-276 2,-291 6,-24 11,-27 44,-24 l 37,3 v 360 360 h -40 -40 l -126,-223 -127,-224 -89,159 c -49,87 -107,188 -127,226 -37,65 -39,67 -77,67 h -39 z"
       id="path361" />
    <path
       d="m 1043,1078 c -40,-19 -44,-52 -41,-287 3,-220 3,-223 27,-242 31,-25 85,-25 111,1 19,19 20,33 20,258 0,215 -2,240 -17,254 -24,21 -73,29 -100,16 z"
       id="path363" />
    <path
       d="m 760,696 c 0,-319 7,-346 85,-346 39,0 62,16 74,51 11,33 16,540 5,551 -3,4 -17,0 -32,-8 -35,-18 -60,-18 -96,1 -15,8 -30,15 -32,15 -2,0 -4,-119 -4,-264 z"
       id="path365" />
    <path
       d="m 1265,905 c -21,-20 -25,-33 -25,-87 0,-85 7,-106 41,-123 40,-21 66,-19 94,10 22,21 25,33 25,103 0,69 -3,81 -23,100 -32,30 -81,29 -112,-3 z"
       id="path367" />
    <path
       d="m 520,506 c 0,-275 0,-275 24,-302 31,-37 90,-39 117,-5 18,21 19,44 19,301 v 278 l -40,-14 c -35,-12 -45,-12 -76,1 -20,8 -38,15 -40,15 -2,0 -4,-123 -4,-274 z"
       id="path369" />
    <path
       d="M 290,327 C 290,44 290,43 313,22 342,-5 390,-6 421,19 l 24,19 3,282 3,283 -23,-7 c -59,-17 -77,-17 -107,-2 l -31,17 z"
       id="path371" />
  </g>
</svg>
