<?xml version="1.0" encoding="UTF-8" standalone="no"?>
<svg
   xmlns:dc="http://purl.org/dc/elements/1.1/"
   xmlns:cc="http://creativecommons.org/ns#"
   xmlns:rdf="http://www.w3.org/1999/02/22-rdf-syntax-ns#"
   xmlns:svg="http://www.w3.org/2000/svg"
   xmlns="http://www.w3.org/2000/svg"
   xmlns:sodipodi="http://sodipodi.sourceforge.net/DTD/sodipodi-0.dtd"
   xmlns:inkscape="http://www.inkscape.org/namespaces/inkscape"
   id="logoipsum"
   data-name="logoipsum"
   viewBox="0 0 123.36 28.49"
   version="1.1"
   sodipodi:docname="logo-2.svg"
   width="123.36"
   height="28.49"
   inkscape:version="1.0.2 (e86c8708, 2021-01-15)">
  <metadata
     id="metadata416">
    <rdf:RDF>
      <cc:Work
         rdf:about="">
        <dc:format>image/svg+xml</dc:format>
        <dc:type
           rdf:resource="http://purl.org/dc/dcmitype/StillImage" />
      </cc:Work>
    </rdf:RDF>
  </metadata>
  <defs
     id="defs414" />
  <sodipodi:namedview
     pagecolor="#ffffff"
     bordercolor="#666666"
     borderopacity="1"
     objecttolerance="10"
     gridtolerance="10"
     guidetolerance="10"
     inkscape:pageopacity="0"
     inkscape:pageshadow="2"
     inkscape:window-width="1280"
     inkscape:window-height="755"
     id="namedview412"
     showgrid="false"
     inkscape:zoom="5.0736866"
     inkscape:cx="61.68"
     inkscape:cy="14.24"
     inkscape:window-x="0"
     inkscape:window-y="23"
     inkscape:window-maximized="1"
     inkscape:current-layer="logoipsum" />
  <title
     id="title389">logoipsum-2</title>
  <path
     d="m 26.52,9.95 c 0.36,0 0.48,0.13 0.48,0.48 v 7.92 h 4.07 c 0.35,0 0.48,0.13 0.48,0.48 v 0.7 c 0,0.35 -0.13,0.48 -0.48,0.48 h -5.36 c -0.35,0 -0.49,-0.13 -0.49,-0.48 v -9.1 c 0,-0.35 0.14,-0.48 0.49,-0.48 z"
     style="fill:#394149"
     id="path391" />
  <path
     d="m 35.1,13.44 c 0,-2.31 1.46,-3.7 4,-3.7 2.54,0 4,1.39 4,3.7 v 3.08 c 0,2.31 -1.47,3.7 -4,3.7 -2.53,0 -4,-1.39 -4,-3.7 z m 6.32,0 c 0,-1.3 -0.81,-2 -2.27,-2 -1.46,0 -2.26,0.71 -2.26,2 v 3.1 c 0,1.31 0.8,2 2.26,2 1.46,0 2.27,-0.72 2.27,-2 z"
     style="fill:#394149"
     id="path393" />
  <path
     d="m 55.01,14.5 c 0.39,0 0.48,0.13 0.48,0.48 v 1.9 a 3,3 0 0 1 -1.06,2.36 4.36,4.36 0 0 1 -3,0.94 c -2.59,0 -4,-1.39 -4,-3.7 v -3.1 c 0,-2.28 1.46,-3.68 4,-3.68 2,0 3.3,0.79 3.85,2.37 a 0.43,0.43 0 0 1 -0.3,0.62 l -0.78,0.27 c -0.34,0.12 -0.48,0.05 -0.6,-0.3 a 2.06,2.06 0 0 0 -2.17,-1.3 c -1.47,0 -2.27,0.71 -2.27,2 v 3.18 c 0,1.31 0.81,2 2.27,2 1.46,0 2.36,-0.67 2.36,-1.65 v -0.74 h -2.17 c -0.36,0 -0.49,-0.14 -0.49,-0.49 v -0.68 c 0,-0.35 0.13,-0.48 0.49,-0.48 z"
     style="fill:#394149"
     id="path395" />
  <path
     d="m 59.62,13.44 c 0,-2.31 1.46,-3.7 4,-3.7 2.54,0 4,1.39 4,3.7 v 3.08 c 0,2.31 -1.47,3.7 -4,3.7 -2.53,0 -4,-1.39 -4,-3.7 z m 6.31,0 c 0,-1.3 -0.81,-2 -2.26,-2 -1.45,0 -2.27,0.71 -2.27,2 v 3.1 c 0,1.31 0.81,2 2.27,2 1.46,0 2.26,-0.72 2.26,-2 z"
     style="fill:#394149"
     id="path397" />
  <path
     d="m 72.33,10.24 c 0,-0.22 0.07,-0.29 0.29,-0.29 h 0.46 c 0.22,0 0.27,0.07 0.27,0.29 v 9.48 c 0,0.22 0,0.29 -0.27,0.29 h -0.46 c -0.22,0 -0.29,-0.07 -0.29,-0.29 z"
     style="fill:#394149"
     id="path399" />
  <path
     d="m 82.46,9.95 a 3.14,3.14 0 1 1 0,6.28 h -3 v 3.49 c 0,0.22 -0.05,0.29 -0.26,0.29 h -0.47 c -0.21,0 -0.29,-0.07 -0.29,-0.29 v -9.48 c 0,-0.22 0.08,-0.29 0.29,-0.29 z m -0.09,5.29 a 2.18,2.18 0 1 0 0,-4.36 h -3 v 4.36 z"
     style="fill:#394149"
     id="path401" />
  <path
     d="m 93.41,9.75 a 3.61,3.61 0 0 1 3.72,2.18 c 0.08,0.16 0,0.29 -0.16,0.37 l -0.44,0.2 c -0.18,0.07 -0.25,0.06 -0.36,-0.13 a 2.72,2.72 0 0 0 -2.76,-1.64 c -1.69,0 -2.61,0.67 -2.61,1.87 a 1.52,1.52 0 0 0 1.27,1.54 6.79,6.79 0 0 0 1.66,0.32 6.88,6.88 0 0 1 2,0.41 2.25,2.25 0 0 1 1.56,2.37 c 0,1.87 -1.36,3 -3.86,3 a 3.61,3.61 0 0 1 -3.83,-2.43 0.27,0.27 0 0 1 0.17,-0.38 l 0.44,-0.16 a 0.27,0.27 0 0 1 0.36,0.17 2.86,2.86 0 0 0 2.86,1.8 c 1.89,0 2.82,-0.66 2.82,-2 a 1.49,1.49 0 0 0 -1.17,-1.53 7,7 0 0 0 -1.59,-0.28 l -1.08,-0.14 a 9.5,9.5 0 0 1 -1,-0.27 2.63,2.63 0 0 1 -0.89,-0.47 2.44,2.44 0 0 1 -0.8,-1.91 c 0.07,-1.75 1.38,-2.89 3.69,-2.89 z"
     style="fill:#394149"
     id="path403" />
  <path
     d="m 102.68,16.59 a 2.78,2.78 0 0 0 5.55,0 v -6.35 c 0,-0.22 0.07,-0.29 0.29,-0.29 h 0.46 c 0.22,0 0.29,0.07 0.29,0.29 v 6.34 c 0,2.27 -1.34,3.64 -3.81,3.64 -2.47,0 -3.81,-1.37 -3.81,-3.64 v -6.34 c 0,-0.22 0.07,-0.29 0.28,-0.29 h 0.47 c 0.21,0 0.28,0.07 0.28,0.29 z"
     style="fill:#394149"
     id="path405" />
  <path
     d="m 123.07,9.95 c 0.22,0 0.29,0.07 0.29,0.29 v 9.48 c 0,0.22 -0.07,0.29 -0.29,0.29 h -0.42 c -0.21,0 -0.28,-0.07 -0.28,-0.29 v -5.77 a 18.55,18.55 0 0 1 0.17,-2.51 h -0.06 a 18,18 0 0 1 -1.09,2.21 l -2.15,3.79 a 0.35,0.35 0 0 1 -0.33,0.22 h -0.28 a 0.37,0.37 0 0 1 -0.34,-0.22 l -2.18,-3.83 a 16.07,16.07 0 0 1 -1,-2.18 h -0.06 a 21.76,21.76 0 0 1 0.16,2.53 v 5.76 c 0,0.22 -0.07,0.29 -0.29,0.29 h -0.39 c -0.22,0 -0.29,-0.07 -0.29,-0.29 v -9.48 c 0,-0.22 0.07,-0.29 0.29,-0.29 h 0.36 a 0.4,0.4 0 0 1 0.4,0.23 l 3.5,6.22 3.48,-6.16 c 0.11,-0.21 0.17,-0.24 0.39,-0.24 z"
     style="fill:#394149"
     id="path407" />
  <path
     d="m 8.73,17.79 v 7.23 a 1.045,1.045 0 0 1 -2.09,0 V 17.8 a 1.77,1.77 0 0 0 1,0.34 1.72,1.72 0 0 0 1.09,-0.35 z m 8.9,-2.09 a 1,1 0 0 0 -1,1 v 1.26 a 1.045,1.045 0 1 0 2.09,0 V 16.75 A 1,1 0 0 0 17.63,15.7 Z M 4.37,20.53 a 1.8,1.8 0 0 1 -1,-0.34 v 7.25 a 1.05,1.05 0 0 0 2.1,0 v -7.2 a 1.83,1.83 0 0 1 -1.1,0.29 z m 10,-7 a 1,1 0 0 0 -1.05,1 v 5.57 a 1.05,1.05 0 1 0 2.1,0 v -5.5 a 1,1 0 0 0 -1.1,-1.05 z m -3.32,2.14 A 1.83,1.83 0 0 1 10,15.33 v 7.27 a 1.05,1.05 0 1 0 2.1,0 V 15.34 A 1.77,1.77 0 0 1 11,15.69 Z M 2.1,21.24 V 0.93 A 0.94,0.94 0 0 0 1.16,0 H 0.94 A 0.94,0.94 0 0 0 0,0.93 v 20.31 a 0.94,0.94 0 0 0 0.94,0.94 H 1.16 A 0.94,0.94 0 0 0 2.1,21.24 Z M 4.48,19.76 H 4.26 A 0.94,0.94 0 0 1 3.32,18.82 V 3.35 A 0.94,0.94 0 0 1 4.26,2.42 H 4.48 A 0.94,0.94 0 0 1 5.42,3.35 V 18.84 A 0.94,0.94 0 0 1 4.48,19.78 Z M 7.79,17.38 H 7.56 A 0.93,0.93 0 0 1 6.63,16.45 V 5.75 A 0.93,0.93 0 0 1 7.56,4.81 h 0.23 a 0.94,0.94 0 0 1 0.93,0.94 v 10.7 A 0.93,0.93 0 0 1 7.79,17.38 Z M 11.1,14.93 H 10.89 A 0.94,0.94 0 0 1 9.95,14 V 8.24 a 0.94,0.94 0 0 1 0.94,-1 h 0.22 a 0.94,0.94 0 0 1 0.94,0.94 v 5.8 a 0.94,0.94 0 0 1 -0.94,0.95 z m 3.32,-2.15 H 14.2 A 0.94,0.94 0 0 1 13.26,11.84 V 10.35 A 0.94,0.94 0 0 1 14.2,9.42 h 0.22 a 0.94,0.94 0 0 1 0.94,0.93 v 1.49 a 0.94,0.94 0 0 1 -0.93,0.94 z"
     style="fill:#394149"
     id="path409" />
</svg>
