<?xml version="1.0" encoding="UTF-8"?> <!-- Generator: Adobe Illustrator 19.2.0, SVG Export Plug-In . SVG Version: 6.00 Build 0) --> <svg xmlns="http://www.w3.org/2000/svg" xmlns:xlink="http://www.w3.org/1999/xlink" id="Layer_1" x="0px" y="0px" viewBox="0 0 839.1 839.1" style="enable-background:new 0 0 839.1 839.1;" xml:space="preserve"> <style type="text/css"> .st0{fill:#D70000;} .st1{fill:#FFFFFF;} .st2{fill:#BF0411;} </style> <g> <path class="st0" d="M419.5,0H0v419.5c0,231.7,187.8,419.5,419.5,419.5s419.5-187.8,419.5-419.5S651.3,0,419.5,0z"></path> <circle cx="419.5" cy="419.5" r="374.3"></circle> <circle class="st1" cx="419.5" cy="419.5" r="360"></circle> <path class="st2" d="M368.5,319.5h34.9L385,289.8l-33.9,53.7l-15.4,0l41.2-64.5c1.7-2.6,4.8-4.2,8-4.2c3.2,0,6.2,1.5,8,4.1 l41.4,64.6l-15.4,0l-7.2-12h-35.4L368.5,319.5L368.5,319.5z M528.7,331.5v-56h-13.1V337c0,1.7,0.7,3.3,1.9,4.5c1.3,1.3,3,2,4.8,2 H582l7.7-12H528.7L528.7,331.5z M312.3,321.5c12.7,0,23-10.3,23-23c0-12.7-10.3-23-23-23H255v68h13.1v-56h43.3c6.1,0,11,4.9,11,11 c0,6.1-4.9,11-11,11l-36.9,0l39,34h19l-26.3-22L312.3,321.5L312.3,321.5z M174.5,343.5c-18.8,0-34-15.2-34-34c0-18.8,15.2-34,34-34 h39.5c18.8,0,34,15.2,34,34c0,18.8-15.2,34-34,34L174.5,343.5L174.5,343.5z M213.2,331.5c12.2,0,22-9.9,22-22c0-12.2-9.9-22-22-22 l-37.8,0c-12.2,0-22,9.9-22,22c0,12.2,9.9,22,22,22H213.2L213.2,331.5z M461.6,343.5c-18.8,0-34-15.2-34-34c0-18.8,15.2-34,34-34 h47l-7.7,12l-38.4,0c-12.2,0-22,9.9-22,22c0,12.2,9.9,22,22,22h47.2l-7.7,12H461.6L461.6,343.5z M621.6,331.5 c-10.1,0-18.6-6.8-21.2-16h55.9l7.7-12l-63.6,0c2.6-9.3,11.1-16,21.2-16l38.4,0l7.7-12h-47c-18.8,0-34,15.2-34,34 c0,18.8,15.2,34,34,34h40.4l7.7-12H621.6L621.6,331.5z"></path> <g> <rect x="33.4" y="33.4" class="st1" width="98.4" height="98.4"></rect> <polygon class="st0" points="121.5,119.1 106.2,107.2 91,119.1 91,68.7 121.5,68.7 "></polygon> <rect x="44.9" y="47.7" class="st0" width="76.6" height="7.5"></rect> <rect x="44.9" y="68.7" class="st0" width="36.2" height="5.5"></rect> <rect x="44.9" y="83" class="st0" width="36.2" height="5.5"></rect> <rect x="44.9" y="97.3" class="st0" width="36.2" height="5.5"></rect> <rect x="44.9" y="111.6" class="st0" width="36.2" height="5.5"></rect> </g> </g> <path class="st2" d="M674.7,282.7c0-3.3,2.7-6,6-6c3.3,0,6,2.7,6,6c0,3.3-2.7,6-6,6C677.4,288.8,674.7,286.1,674.7,282.7 L674.7,282.7z M680.8,290.4c4.2,0,7.7-3.4,7.7-7.6c0-4.2-3.4-7.6-7.7-7.6c-4.2,0-7.6,3.4-7.6,7.6C673.1,287,676.5,290.4,680.8,290.4 L680.8,290.4z M680,278.2c1.2,0,1.7,0,2.2,0.2c1.5,0.5,1.7,1.9,1.7,2.4c0,0.1,0,0.4-0.1,0.7c-0.1,0.3-0.3,1-1.1,1.5 c-0.1,0.1-0.1,0.1-0.4,0.2l2,3.6h-1.9l-1.7-3.3h-1.2v3.3h-1.7v-8.6H680L680,278.2z M680.6,282.1c0.5,0,1.1-0.1,1.4-0.5 c0.1-0.2,0.2-0.4,0.2-0.7c0-0.5-0.2-0.8-0.6-1c-0.4-0.1-0.8-0.1-1.6-0.1h-0.5v2.5H680.6L680.6,282.1z"></path> <g> <path d="M174.1,466c-8.7,0-16-2.9-21.9-8.8c-5.8-5.9-8.7-13.2-8.7-22c0-8.8,2.9-16.1,8.7-21.9c5.8-5.9,13.1-8.9,21.9-8.9 c8.9,0,16.1,3.2,21.6,9.6l-5.4,5.3c-4.2-5.1-9.6-7.6-16.2-7.6c-6.5,0-12,2.2-16.4,6.6c-4.3,4.3-6.5,10-6.5,16.9 c0,7,2.2,12.6,6.5,16.9c4.4,4.4,9.8,6.6,16.4,6.6c6.9,0,12.8-2.9,17.8-8.6l5.5,5.3c-2.8,3.3-6.2,5.9-10.3,7.8 C183.1,465.1,178.8,466,174.1,466z"></path> <path d="M221.5,466c-5.9,0-10.8-2-14.6-6.1c-3.8-4.1-5.8-9.2-5.8-15.4c0-6.1,1.9-11.3,5.6-15.3c3.7-4.1,8.5-6.1,14.3-6.1 c6,0,10.7,1.9,14.3,5.8c3.5,3.9,5.3,9.3,5.3,16.2l-0.1,0.8h-31.7c0.1,3.9,1.4,7.1,3.9,9.5c2.5,2.4,5.5,3.6,9,3.6 c4.8,0,8.6-2.4,11.3-7.2l6.7,3.3c-1.8,3.4-4.3,6.1-7.5,8S225.5,466,221.5,466z M209.4,439.7h23.1c-0.2-2.8-1.4-5.1-3.4-6.9 c-2.1-1.8-4.8-2.8-8.3-2.8c-2.9,0-5.3,0.9-7.4,2.6C211.4,434.3,210.1,436.7,209.4,439.7z"></path> <path d="M247.5,424.4h7.2v6.6h0.3c2.2-5.2,6.9-7.7,13.9-7.7l1.6,0.2v7.9l-3.4-0.3c-3.5,0-6.4,1.1-8.7,3.2c-2.3,2.2-3.4,4.9-3.4,8.3 v22.2h-7.6V424.4z M294.7,465.3c-3.3,0-6-1-8.2-3c-2.2-2-3.3-4.9-3.3-8.5v-22.5h-7.1v-6.9h7.1V412h7.6v12.3h9.9v6.9h-9.9v20.1 c0,2.7,0.5,4.5,1.6,5.5c1,1,2.2,1.4,3.5,1.4c0.6,0,1.2-0.1,1.8-0.2c0.6-0.1,1.1-0.3,1.6-0.5l2.4,6.7 C299.6,465,297.3,465.3,294.7,465.3z"></path> <path d="M318,410.5c0,1.5-0.5,2.7-1.6,3.8c-1,1-2.3,1.6-3.8,1.6c-1.5,0-2.7-0.5-3.8-1.6c-1-1-1.6-2.3-1.6-3.8 c0-1.5,0.5-2.7,1.6-3.8c1-1,2.3-1.6,3.8-1.6c1.5,0,2.7,0.5,3.8,1.6C317.5,407.7,318,409,318,410.5z M316.5,424.4v40.3h-7.6v-40.3 H316.5z"></path> <path d="M338.8,431.3v33.4h-7.6v-33.4h-7.6v-6.9h7.6v-5.8c0-2,0.3-3.8,1-5.4c0.7-1.6,1.6-3.1,2.8-4.2c1.2-1.2,2.6-2.1,4.3-2.8 c1.7-0.7,3.5-1,5.5-1c2.7,0,5,0.5,6.7,1.4l-2.1,6.7c-1.3-0.7-2.8-1-4.4-1c-1.9,0-3.4,0.6-4.6,1.9c-1.2,1.3-1.8,3-1.8,5.1v5.1h25.7 v40.3h-7.6v-33.4H338.8z M366,410.5c0,1.5-0.5,2.7-1.6,3.8c-1,1-2.3,1.6-3.8,1.6c-1.5,0-2.7-0.5-3.8-1.6c-1-1-1.6-2.3-1.6-3.8 c0-1.5,0.5-2.7,1.6-3.8c1-1,2.3-1.6,3.8-1.6c1.5,0,2.7,0.5,3.8,1.6C365.5,407.7,366,409,366,410.5z"></path> <path d="M392,466c-5.9,0-10.8-2-14.6-6.1c-3.8-4.1-5.8-9.2-5.8-15.4c0-6.1,1.9-11.3,5.6-15.3c3.7-4.1,8.5-6.1,14.3-6.1 c6,0,10.7,1.9,14.3,5.8c3.5,3.9,5.3,9.3,5.3,16.2l-0.1,0.8h-31.7c0.1,3.9,1.4,7.1,3.9,9.5c2.5,2.4,5.5,3.6,9,3.6 c4.8,0,8.6-2.4,11.3-7.2l6.7,3.3c-1.8,3.4-4.3,6.1-7.5,8S396.1,466,392,466z M379.9,439.7h23.1c-0.2-2.8-1.4-5.1-3.4-6.9 c-2.1-1.8-4.8-2.8-8.3-2.8c-2.9,0-5.3,0.9-7.4,2.6C382,434.3,380.6,436.7,379.9,439.7z"></path> <path d="M435.3,466c-5.3,0-9.8-2.1-13.6-6.2c-3.7-4.2-5.6-9.3-5.6-15.2c0-5.9,1.9-11,5.6-15.2c3.8-4.2,8.3-6.2,13.6-6.2 c3,0,5.7,0.6,8.1,1.9c2.4,1.3,4.3,2.9,5.6,5h0.3l-0.3-5.6v-18.6h7.6v58.9h-7.2v-5.6H449c-1.3,2.1-3.2,3.8-5.6,5 C440.9,465.3,438.2,466,435.3,466z M436.5,459.1c3.7,0,6.8-1.3,9.1-4c2.5-2.7,3.7-6.2,3.7-10.5c0-4.2-1.2-7.7-3.7-10.4 c-2.4-2.7-5.5-4.1-9.1-4.1c-3.6,0-6.7,1.4-9.1,4.1s-3.7,6.2-3.7,10.4c0,4.3,1.2,7.8,3.7,10.4C429.9,457.7,432.9,459.1,436.5,459.1z "></path> <path d="M154,539.5v23.8h-7.6v-58.9h20.1c5.1,0,9.4,1.7,13,5.1c3.6,3.4,5.4,7.5,5.4,12.4c0,5-1.8,9.2-5.4,12.5c-3.5,3.3-7.8,5-13,5 H154z M154,511.7v20.6h12.7c3,0,5.5-1,7.5-3c2-2,3-4.4,3-7.2c0-2.7-1-5.1-3-7.2c-2-2.1-4.5-3.1-7.5-3.1H154z"></path> <path d="M199,563.3h-7.6V523h7.2v6.6h0.3c0.8-2.1,2.3-4,4.7-5.5c2.4-1.5,4.7-2.3,7-2.3c2.2,0,4.1,0.3,5.6,1l-2.3,7.3 c-0.9-0.4-2.4-0.6-4.4-0.6c-2.9,0-5.3,1.2-7.4,3.5c-2.1,2.3-3.2,5-3.2,8.1V563.3z"></path> <path d="M216.6,543.2c0-6.2,1.9-11.3,5.8-15.4c3.9-4.1,8.9-6.1,14.9-6.1c6,0,10.9,2,14.8,6.1c3.9,4.1,5.9,9.2,5.9,15.4 c0,6.2-2,11.4-5.9,15.4c-3.9,4.1-8.8,6.1-14.8,6.1c-6,0-10.9-2-14.9-6.1C218.5,554.5,216.6,549.4,216.6,543.2z M224.1,543.2 c0,4.3,1.3,7.8,3.8,10.5c2.5,2.7,5.6,4,9.4,4c3.7,0,6.9-1.3,9.4-4c2.5-2.7,3.8-6.2,3.8-10.5c0-4.3-1.3-7.8-3.8-10.4 c-2.6-2.7-5.7-4.1-9.4-4.1c-3.7,0-6.8,1.4-9.4,4.1C225.4,535.4,224.1,538.9,224.1,543.2z"></path> <path d="M282.3,503.8c2.7,0,5,0.5,6.7,1.4l-2.1,6.7c-1.3-0.7-2.8-1-4.4-1c-1.9,0-3.4,0.6-4.6,1.9c-1.2,1.3-1.8,3-1.8,5.1v5.1h10.5 v6.9h-10.5v33.4h-7.6V530H261V523h7.6v-5.8c0-4,1.3-7.2,3.8-9.7C275,505,278.3,503.8,282.3,503.8z"></path> <path d="M309.6,564.7c-5.9,0-10.8-2-14.6-6.1c-3.8-4.1-5.8-9.2-5.8-15.4c0-6.1,1.9-11.3,5.6-15.3c3.7-4.1,8.5-6.1,14.3-6.1 c6,0,10.7,1.9,14.3,5.8c3.5,3.9,5.3,9.3,5.3,16.2l-0.1,0.8h-31.7c0.1,3.9,1.4,7.1,3.9,9.5c2.5,2.4,5.5,3.6,9,3.6 c4.8,0,8.6-2.4,11.3-7.2l6.7,3.3c-1.8,3.4-4.3,6.1-7.5,8S313.6,564.7,309.6,564.7z M297.5,538.3h23.1c-0.2-2.8-1.4-5.1-3.4-6.9 c-2.1-1.8-4.8-2.8-8.3-2.8c-2.9,0-5.3,0.9-7.4,2.6C299.5,533,298.1,535.4,297.5,538.3z"></path> <path d="M366.8,552.2c0,3.5-1.5,6.5-4.6,8.9c-3.1,2.4-6.9,3.6-11.6,3.6c-4.1,0-7.6-1.1-10.7-3.2c-3.1-2.1-5.3-4.9-6.6-8.3l6.7-2.9 c1,2.4,2.4,4.3,4.3,5.6c1.9,1.3,4,2,6.2,2c2.4,0,4.4-0.5,6-1.6c1.6-1,2.4-2.3,2.4-3.7c0-2.6-2-4.5-5.9-5.7l-6.9-1.7 c-7.8-2-11.8-5.8-11.8-11.3c0-3.7,1.5-6.6,4.5-8.8c3-2.2,6.8-3.3,11.5-3.3c3.6,0,6.8,0.9,9.7,2.5c2.9,1.7,4.9,4,6,6.8l-6.7,2.8 c-0.8-1.7-2-3-3.7-4c-1.7-1-3.7-1.4-5.8-1.4c-2,0-3.7,0.5-5.3,1.5c-1.6,1-2.3,2.2-2.3,3.6c0,2.3,2.2,3.9,6.5,4.9l6.1,1.6 C362.8,542,366.8,546.1,366.8,552.2z"></path> <path d="M404.2,552.2c0,3.5-1.5,6.5-4.6,8.9c-3.1,2.4-6.9,3.6-11.6,3.6c-4.1,0-7.6-1.1-10.7-3.2c-3.1-2.1-5.3-4.9-6.6-8.3l6.7-2.9 c1,2.4,2.4,4.3,4.3,5.6c1.9,1.3,4,2,6.2,2c2.4,0,4.4-0.5,6-1.6c1.6-1,2.4-2.3,2.4-3.7c0-2.6-2-4.5-5.9-5.7l-6.9-1.7 c-7.8-2-11.8-5.8-11.8-11.3c0-3.7,1.5-6.6,4.5-8.8c3-2.2,6.8-3.3,11.5-3.3c3.6,0,6.8,0.9,9.7,2.5c2.9,1.7,4.9,4,6,6.8l-6.7,2.8 c-0.8-1.7-2-3-3.7-4c-1.7-1-3.7-1.4-5.8-1.4c-2,0-3.7,0.5-5.3,1.5c-1.6,1-2.3,2.2-2.3,3.6c0,2.3,2.2,3.9,6.5,4.9l6.1,1.6 C400.2,542,404.2,546.1,404.2,552.2z"></path> <path d="M420.2,509.1c0,1.5-0.5,2.7-1.6,3.8c-1,1-2.3,1.6-3.8,1.6c-1.5,0-2.7-0.5-3.8-1.6c-1-1-1.6-2.3-1.6-3.8 c0-1.5,0.5-2.7,1.6-3.8c1-1,2.3-1.6,3.8-1.6c1.5,0,2.7,0.5,3.8,1.6C419.6,506.4,420.2,507.7,420.2,509.1z M418.6,523v40.3H411V523 H418.6z"></path> <path d="M425.7,543.2c0-6.2,1.9-11.3,5.8-15.4c3.9-4.1,8.9-6.1,14.9-6.1s10.9,2,14.8,6.1c3.9,4.1,5.9,9.2,5.9,15.4 c0,6.2-2,11.4-5.9,15.4c-3.9,4.1-8.8,6.1-14.8,6.1s-10.9-2-14.9-6.1C427.7,554.5,425.7,549.4,425.7,543.2z M433.3,543.2 c0,4.3,1.3,7.8,3.8,10.5c2.5,2.7,5.6,4,9.4,4c3.7,0,6.9-1.3,9.4-4c2.5-2.7,3.8-6.2,3.8-10.5c0-4.3-1.3-7.8-3.8-10.4 c-2.6-2.7-5.7-4.1-9.4-4.1s-6.8,1.4-9.4,4.1C434.6,535.4,433.3,538.9,433.3,543.2z"></path> <path d="M473.3,523h7.2v5.6h0.3c1.2-2,2.9-3.6,5.3-4.9s4.9-2,7.4-2c4.9,0,8.7,1.4,11.4,4.2c2.7,2.8,4,6.8,4,12v25.3h-7.6v-24.8 c-0.2-6.6-3.5-9.9-10-9.9c-3,0-5.5,1.2-7.6,3.7c-2,2.4-3,5.4-3,8.8v22.3h-7.6V523z"></path> <path d="M532.7,521.7c5.6,0,10,1.5,13.2,4.5c3.2,3,4.9,7.1,4.9,12.3v24.8h-7.2v-5.6h-0.3c-3.1,4.6-7.3,6.9-12.5,6.9 c-4.4,0-8.2-1.3-11.1-3.9c-3-2.6-4.5-5.9-4.5-9.9c0-4.2,1.6-7.5,4.7-10c3.2-2.5,7.4-3.7,12.6-3.7c4.5,0,8.2,0.8,11.1,2.5v-1.7 c0-2.6-1-4.9-3.1-6.7c-2.1-1.8-4.5-2.8-7.3-2.8c-4.2,0-7.6,1.8-10,5.3l-6.7-4.2C520.1,524.4,525.5,521.7,532.7,521.7z M522.9,551 c0,2,0.8,3.6,2.5,4.9c1.7,1.3,3.6,2,5.9,2c3.2,0,6-1.2,8.5-3.5c2.5-2.4,3.7-5.1,3.7-8.3c-2.4-1.9-5.6-2.8-9.9-2.8 c-3.1,0-5.6,0.7-7.7,2.2C524,547,522.9,548.8,522.9,551z"></path> <path d="M566.9,504.5v58.9h-7.6v-58.9H566.9z"></path> </g> </svg> 