<?xml version="1.0" standalone="no"?>
<!DOCTYPE svg PUBLIC "-//W3C//DTD SVG 20010904//EN"
 "http://www.w3.org/TR/2001/REC-SVG-20010904/DTD/svg10.dtd">
<svg version="1.0" xmlns="http://www.w3.org/2000/svg"
 width="700.000000pt" height="700.000000pt" viewBox="0 0 700.000000 700.000000"
 preserveAspectRatio="xMidYMid meet">
<metadata>
Created by potrace 1.11, written by Peter Selinger 2001-2013
</metadata>
<g transform="translate(0.000000,700.000000) scale(0.100000,-0.100000)"
fill="#000000" stroke="none">
<path d="M4750 6814 c-63 -7 -126 -15 -140 -19 -14 -3 -47 -10 -75 -16 -130
-25 -301 -86 -454 -161 -107 -53 -309 -183 -371 -238 -19 -18 -61 -55 -93 -83
-83 -73 -220 -235 -293 -347 -153 -233 -245 -475 -291 -761 -14 -91 -16 -230
-17 -1131 -1 -701 2 -1029 9 -1031 5 -1 469 -2 1030 -2 918 2 1128 5 1206 20
13 3 51 10 84 15 485 86 932 363 1225 760 47 63 96 133 108 155 91 160 161
326 197 467 25 94 26 98 36 158 6 30 12 66 15 80 3 14 7 108 9 210 7 320 -46
566 -187 860 -96 201 -286 445 -458 590 -29 25 -58 50 -64 56 -23 22 -204 143
-271 181 -193 108 -480 205 -680 229 -22 3 -56 7 -75 10 -75 12 -341 10 -450
-2z"/>
<path d="M2508 5265 c-2 -1 -37 -6 -78 -9 -41 -4 -84 -9 -95 -11 -11 -3 -37
-7 -58 -10 -58 -8 -185 -34 -247 -51 -75 -21 -240 -73 -265 -84 -11 -5 -43
-18 -72 -29 -87 -34 -243 -112 -348 -175 -523 -313 -914 -788 -1108 -1346 -40
-115 -93 -317 -103 -389 -3 -25 -7 -53 -9 -61 -3 -18 -17 -142 -21 -190 -5
-65 -4 -305 1 -360 13 -128 23 -200 35 -260 5 -25 12 -57 14 -71 13 -83 83
-303 133 -424 210 -503 562 -905 1064 -1218 160 -99 457 -223 666 -278 88 -24
89 -24 198 -44 135 -25 164 -29 285 -40 57 -5 382 -5 434 0 38 4 103 12 176
22 301 41 659 165 936 324 76 44 193 118 204 129 3 3 32 25 65 49 318 234 600
577 773 941 99 210 157 391 201 630 23 121 29 173 37 323 l6 107 -1309 0
-1309 0 0 1263 0 1262 -101 2 c-56 1 -103 0 -105 -2z"/>
</g>
</svg>
