<?xml version="1.0" encoding="UTF-8" standalone="no"?>
<svg
   xmlns:dc="http://purl.org/dc/elements/1.1/"
   xmlns:cc="http://creativecommons.org/ns#"
   xmlns:rdf="http://www.w3.org/1999/02/22-rdf-syntax-ns#"
   xmlns:svg="http://www.w3.org/2000/svg"
   xmlns="http://www.w3.org/2000/svg"
   xmlns:sodipodi="http://sodipodi.sourceforge.net/DTD/sodipodi-0.dtd"
   xmlns:inkscape="http://www.inkscape.org/namespaces/inkscape"
   version="1.1"
   id="svg46"
   xml:space="preserve"
   width="800"
   height="800"
   viewBox="0 0 800 800"
   sodipodi:docname="nodejs-new-pantone-white.svg"
   inkscape:version="1.0.2 (e86c8708, 2021-01-15)"><metadata
     id="metadata52"><rdf:RDF><cc:Work
         rdf:about=""><dc:format>image/svg+xml</dc:format><dc:type
           rdf:resource="http://purl.org/dc/dcmitype/StillImage" /><dc:title></dc:title></cc:Work></rdf:RDF></metadata><defs
     id="defs50"><clipPath
       clipPathUnits="userSpaceOnUse"
       id="clipPath78"><path
         d="m 2390.32,3733.93 -421.34,-243.15 c -15.76,-9.09 -25.45,-25.88 -25.45,-44.07 v 0 -486.66 c 0,-18.18 9.69,-34.97 25.44,-44.08 v 0 l 421.33,-243.34 c 15.76,-9.09 35.16,-9.09 50.91,0 v 0 l 421.24,243.34 c 15.74,9.11 25.43,25.9 25.43,44.08 v 0 486.68 c 0,18.17 -9.69,34.96 -25.45,44.05 v 0 l -421.23,243.15 c -7.87,4.54 -16.66,6.82 -25.44,6.82 v 0 c -8.79,0 -17.57,-2.28 -25.44,-6.82"
         id="path76" /></clipPath><linearGradient
       x1="0"
       y1="0"
       x2="1"
       y2="0"
       gradientUnits="userSpaceOnUse"
       gradientTransform="matrix(-380.649,-776.524,-776.524,380.649,2587.02,3552.85)"
       spreadMethod="pad"
       id="linearGradient86"><stop
         style="stop-opacity:1;stop-color:#687e67"
         offset="0"
         id="stop80" /><stop
         style="stop-opacity:1;stop-color:#687e67"
         offset="0.5288042"
         id="stop82" /><stop
         style="stop-opacity:1;stop-color:#83a178"
         offset="1"
         id="stop84" /></linearGradient><clipPath
       clipPathUnits="userSpaceOnUse"
       id="clipPath96"><path
         d="m 1954,2929.14 c 4.01,-5.25 9.06,-9.75 14.97,-13.17 v 0 l 361.43,-208.74 60.17,-34.6 c 9,-5.19 19.27,-7.39 29.36,-6.65 v 0 c 3.37,0.28 6.73,0.9 10.01,1.85 v 0 l 444.3,813.57 c -3.4,3.65 -7.36,6.82 -11.81,9.38 v 0 l -275.88,159.25 -145.79,83.9 c -4.17,2.4 -8.64,4.13 -13.23,5.26 v 0 z"
         id="path94" /></clipPath><linearGradient
       x1="0"
       y1="0"
       x2="1"
       y2="0"
       gradientUnits="userSpaceOnUse"
       gradientTransform="matrix(1068.07,789.149,789.149,-1068.07,2351.58,3146.47)"
       spreadMethod="pad"
       id="linearGradient108"><stop
         style="stop-opacity:1;stop-color:#687e67"
         offset="0"
         id="stop98" /><stop
         style="stop-opacity:1;stop-color:#687e67"
         offset="0.137556"
         id="stop100" /><stop
         style="stop-opacity:1;stop-color:#9bb48f"
         offset="0.69737407"
         id="stop102" /><stop
         style="stop-opacity:1;stop-color:#9bb48f"
         offset="0.908084"
         id="stop104" /><stop
         style="stop-opacity:1;stop-color:#9bb48f"
         offset="1"
         id="stop106" /></linearGradient><clipPath
       clipPathUnits="userSpaceOnUse"
       id="clipPath118"><path
         d="m 2410.65,3740.48 c -7.05,-0.7 -13.98,-2.89 -20.33,-6.55 v 0 l -420.14,-242.45 452.93,-825.13 c 6.28,0.91 12.43,3.01 18.1,6.28 v 0 l 421.24,243.34 c 13.01,7.53 21.89,20.31 24.58,34.77 v 0 l -461.78,788.9 c -3.41,0.68 -6.88,1.02 -10.35,1.02 v 0 c -1.42,0 -2.84,-0.06 -4.25,-0.18"
         id="path116" /></clipPath><linearGradient
       x1="0"
       y1="0"
       x2="1"
       y2="0"
       gradientUnits="userSpaceOnUse"
       gradientTransform="matrix(974.17,0,0,-974.17,1928.62,3203.48)"
       spreadMethod="pad"
       id="linearGradient130"><stop
         style="stop-opacity:1;stop-color:#9bb48f"
         offset="0"
         id="stop120" /><stop
         style="stop-opacity:1;stop-color:#9bb48f"
         offset="0.0919165"
         id="stop122" /><stop
         style="stop-opacity:1;stop-color:#9bb48f"
         offset="0.30262629"
         id="stop124" /><stop
         style="stop-opacity:1;stop-color:#687e67"
         offset="0.862444"
         id="stop126" /><stop
         style="stop-opacity:1;stop-color:#687e67"
         offset="1"
         id="stop128" /></linearGradient><clipPath
       clipPathUnits="userSpaceOnUse"
       id="clipPath140"><path
         d="m 2390.32,3733.93 -421.34,-243.15 c -15.75,-9.09 -25.45,-25.88 -25.45,-44.07 v -486.66 c 0,-18.18 9.7,-34.97 25.44,-44.08 l 421.33,-243.34 c 15.76,-9.09 35.16,-9.09 50.91,0 l 421.24,243.34 c 15.74,9.11 25.43,25.9 25.43,44.08 v 486.68 c 0,18.17 -9.69,34.96 -25.45,44.05 l -421.23,243.15 c -7.87,4.54 -16.66,6.82 -25.44,6.82 -8.79,0 -17.57,-2.28 -25.44,-6.82"
         id="path138" /></clipPath><clipPath
       clipPathUnits="userSpaceOnUse"
       id="clipPath146"><path
         d="m 2863.51,2915.97 -421.77,-243.33 c -5.8,-3.35 -12.13,-5.45 -18.61,-6.33 l 8.4,-15.3 468.47,271.17 v 6.39 l -11.58,19.79 c -3.47,-13.48 -12.63,-25.28 -24.91,-32.39"
         id="path144" /></clipPath><linearGradient
       x1="0"
       y1="0"
       x2="1"
       y2="0"
       gradientUnits="userSpaceOnUse"
       gradientTransform="matrix(974.17,0,0,-974.17,1928.62,2799.68)"
       spreadMethod="pad"
       id="linearGradient158"><stop
         style="stop-opacity:1;stop-color:#9bb48f"
         offset="0"
         id="stop148" /><stop
         style="stop-opacity:1;stop-color:#9bb48f"
         offset="0.0919165"
         id="stop150" /><stop
         style="stop-opacity:1;stop-color:#9bb48f"
         offset="0.30262629"
         id="stop152" /><stop
         style="stop-opacity:1;stop-color:#687e67"
         offset="0.862444"
         id="stop154" /><stop
         style="stop-opacity:1;stop-color:#687e67"
         offset="1"
         id="stop156" /></linearGradient><linearGradient
       x1="0"
       y1="0"
       x2="1"
       y2="0"
       gradientUnits="userSpaceOnUse"
       gradientTransform="matrix(-600.806,-1225.64,-1225.64,600.806,3044.72,3575.88)"
       spreadMethod="pad"
       id="linearGradient168"><stop
         style="stop-opacity:1;stop-color:#687e67"
         offset="0"
         id="stop162" /><stop
         style="stop-opacity:1;stop-color:#687e67"
         offset="0.5288042"
         id="stop164" /><stop
         style="stop-opacity:1;stop-color:#83a178"
         offset="1"
         id="stop166" /></linearGradient></defs><sodipodi:namedview
     pagecolor="#ffffff"
     bordercolor="#666666"
     borderopacity="1"
     objecttolerance="10"
     gridtolerance="10"
     guidetolerance="10"
     inkscape:pageopacity="0"
     inkscape:pageshadow="2"
     inkscape:window-width="1280"
     inkscape:window-height="755"
     id="namedview48"
     showgrid="false"
     inkscape:zoom="0.68375"
     inkscape:cx="400"
     inkscape:cy="400"
     inkscape:window-x="0"
     inkscape:window-y="23"
     inkscape:window-maximized="1"
     inkscape:current-layer="g54" /><g
     id="g54"
     inkscape:groupmode="layer"
     inkscape:label="ink_ext_XXXXXX"
     transform="matrix(1.3333333,0,0,-1.3333333,0,800)"><g
       id="g56"
       transform="scale(0.1)"><path
         d="m 2969.53,1650.55 c -14.6,0 -29.12,3.82 -41.9,11.22 l -133.38,78.92 c -19.91,11.13 -10.19,15.09 -3.62,17.38 26.57,9.22 31.95,11.35 60.31,27.43 2.95,1.67 6.87,1.03 9.92,-0.77 l 102.47,-60.82 c 3.71,-2.06 8.95,-2.06 12.37,0 l 399.5,230.57 c 3.72,2.13 6.1,6.41 6.1,10.82 v 461.04 c 0,4.51 -2.38,8.71 -6.2,11.01 l -399.33,230.38 c -3.69,2.16 -8.59,2.16 -12.31,0 l -399.23,-230.45 c -3.88,-2.23 -6.34,-6.57 -6.34,-10.94 V 1965.3 c 0,-4.41 2.46,-8.59 6.3,-10.68 l 109.44,-63.23 c 59.38,-29.69 95.74,5.28 95.74,40.41 v 455.18 c 0,6.45 5.17,11.52 11.61,11.52 h 50.65 c 6.34,0 11.58,-5.07 11.58,-11.52 V 1931.8 c 0,-79.25 -43.16,-124.7 -118.29,-124.7 -23.09,0 -41.27,0 -92.02,25.01 l -104.76,60.31 c -25.88,14.96 -41.9,42.93 -41.9,72.88 v 461.04 c 0,29.95 16.02,57.92 41.9,72.8 L 2927.63,2730 c 25.28,14.29 58.88,14.29 83.96,0 l 399.47,-230.86 c 25.87,-14.95 41.96,-42.85 41.96,-72.8 V 1965.3 c 0,-29.95 -16.09,-57.82 -41.96,-72.88 l -399.47,-230.65 c -12.77,-7.4 -27.26,-11.22 -42.06,-11.22"
         style="fill:#689f63;fill-opacity:1;fill-rule:nonzero;stroke:none"
         id="path58" /><path
         d="m 3092.93,1968.18 c -174.82,0 -211.43,80.25 -211.43,147.55 0,6.4 5.13,11.52 11.54,11.52 h 51.64 c 5.77,0 10.59,-4.16 11.48,-9.79 7.8,-52.58 31.05,-79.12 136.77,-79.12 84.16,0 120,19.04 120,63.7 0,25.73 -10.16,44.84 -140.96,57.66 -109.31,10.8 -176.92,34.95 -176.92,122.39 0,80.61 67.95,128.68 181.86,128.68 127.98,0 191.31,-44.41 199.34,-139.72 0.29,-3.28 -0.87,-6.44 -3.05,-8.89 -2.2,-2.28 -5.25,-3.69 -8.47,-3.69 h -51.85 c -5.36,0 -10.11,3.82 -11.2,9.03 -12.45,55.34 -42.7,73.02 -124.77,73.02 -91.89,0 -102.57,-32.02 -102.57,-56 0,-29.07 12.61,-37.52 136.68,-53.93 122.77,-16.23 181.09,-39.21 181.09,-125.5 0,-87.05 -72.59,-136.91 -199.18,-136.91"
         style="fill:#689f63;fill-opacity:1;fill-rule:nonzero;stroke:none"
         id="path60" /><path
         d="m 3579.39,2457 h 13.43 c 10.98,0 13.04,7.73 13.04,12.21 0,11.83 -8.16,11.83 -12.64,11.83 h -13.83 z m -16.32,37.89 h 29.75 c 10.19,0 30.16,0 30.16,-22.83 0,-15.89 -10.19,-19.14 -16.32,-21.18 11.84,-0.81 12.64,-8.56 14.26,-19.55 0.83,-6.92 2.06,-18.75 4.48,-22.81 h -18.31 c -0.43,4.06 -3.29,26.07 -3.29,27.28 -1.19,4.9 -2.85,7.33 -8.95,7.33 h -15.06 v -34.61 h -16.72 z m -35.63,-42.98 c 0,-35.86 28.93,-64.79 64.36,-64.79 35.86,0 64.78,29.54 64.78,64.79 0,35.84 -29.32,64.36 -64.78,64.36 -35.03,0 -64.36,-28.1 -64.36,-64.36 m 141.55,-0.22 c 0,-42.36 -34.64,-76.99 -76.99,-76.99 -41.97,0 -77,34.22 -77,76.99 0,43.59 35.86,77.01 77,77.01 41.56,0 76.99,-33.42 76.99,-77.01"
         style="fill:#689f63;fill-opacity:1;fill-rule:nonzero;stroke:none"
         id="path62" /><path
         d="m 1732.43,3454.33 c 0,18.41 -9.69,35.33 -25.58,44.45 l -423.55,243.75 c -7.16,4.22 -15.19,6.41 -23.31,6.74 h -4.38 c -8.1,-0.33 -16.12,-2.52 -23.39,-6.74 L 808.668,3498.78 c -15.789,-9.12 -25.609,-26.04 -25.609,-44.45 l 0.929,-656.35 c 0,-9.13 4.739,-17.62 12.77,-22.1 7.859,-4.71 17.582,-4.71 25.41,0 l 251.722,144.14 c 15.92,9.45 25.61,26.14 25.61,44.39 v 306.64 c 0,18.28 9.68,35.2 25.54,44.29 l 107.18,61.73 c 7.99,4.61 16.72,6.87 25.64,6.87 8.73,0 17.68,-2.26 25.44,-6.87 l 107.15,-61.73 c 15.86,-9.09 25.58,-26.01 25.58,-44.29 v -306.64 c 0,-18.25 9.82,-35.04 25.64,-44.39 l 251.65,-144.14 c 7.89,-4.71 17.75,-4.71 25.57,0 7.8,4.48 12.71,12.97 12.71,22.1"
         style="fill:#ffffff;fill-opacity:1;fill-rule:evenodd;stroke:none"
         id="path64" /><path
         d="m 3731.09,3112.57 c 0,-4.56 -2.44,-8.79 -6.39,-11.06 l -145.49,-83.86 c -3.95,-2.27 -8.82,-2.27 -12.76,0 l -145.49,83.86 c -3.97,2.27 -6.4,6.5 -6.4,11.06 v 167.99 c 0,4.56 2.43,8.79 6.39,11.08 l 145.47,84.02 c 3.97,2.29 8.84,2.29 12.81,0 l 145.47,-84.02 c 3.95,-2.29 6.39,-6.52 6.39,-11.08 z m 39.31,1244.03 c -7.93,4.4 -17.6,4.31 -25.43,-0.29 -7.81,-4.59 -12.62,-12.99 -12.62,-22.06 v -650 c 0,-6.39 -3.42,-12.31 -8.94,-15.51 -5.53,-3.2 -12.37,-3.2 -17.91,0 l -106.09,61.12 c -15.82,9.13 -35.28,9.11 -51.12,-0.01 l -423.71,-244.53 c -15.84,-9.14 -25.59,-26.03 -25.59,-44.31 v -489.16 c 0,-18.28 9.75,-35.16 25.57,-44.32 l 423.7,-244.71 c 15.84,-9.14 35.34,-9.14 51.19,0 l 423.76,244.71 c 15.83,9.16 25.58,26.04 25.58,44.32 v 1219.36 c 0,18.54 -10.04,35.64 -26.24,44.68"
         style="fill:#ffffff;fill-opacity:1;fill-rule:evenodd;stroke:none"
         id="path66" /><path
         d="m 5181.31,3284.95 c 15.76,9.15 25.46,26.01 25.46,44.24 v 118.54 c 0,18.23 -9.7,35.1 -25.48,44.25 l -420.99,244.43 c -15.84,9.21 -35.39,9.22 -51.27,0.07 l -423.56,-244.53 c -15.83,-9.14 -25.58,-26.02 -25.58,-44.3 v -489.03 c 0,-18.4 9.87,-35.37 25.84,-44.46 l 420.93,-239.85 c 15.52,-8.86 34.55,-8.96 50.17,-0.28 l 254.6,141.51 c 8.08,4.5 13.11,12.97 13.16,22.19 0.06,9.23 -4.85,17.77 -12.84,22.36 l -426.25,244.65 c -7.96,4.56 -12.86,13.04 -12.86,22.19 v 153.26 c 0,9.14 4.88,17.6 12.81,22.16 l 132.66,76.48 c 7.89,4.56 17.64,4.56 25.54,0 l 132.72,-76.48 c 7.93,-4.56 12.8,-13.02 12.8,-22.16 v -120.58 c 0,-9.16 4.9,-17.62 12.83,-22.18 7.93,-4.58 17.7,-4.54 25.61,0.05"
         style="fill:#ffffff;fill-opacity:1;fill-rule:evenodd;stroke:none"
         id="path68" /><path
         d="m 4728.42,3307.86 c 3.04,1.76 6.78,1.76 9.82,0 l 81.3,-46.9 c 3.04,-1.76 4.91,-5 4.91,-8.51 v -93.88 c 0,-3.52 -1.87,-6.75 -4.91,-8.52 l -81.3,-46.91 c -3.04,-1.75 -6.78,-1.75 -9.82,0 l -81.24,46.91 c -3.04,1.77 -4.91,5 -4.91,8.52 v 93.88 c 0,3.51 1.87,6.75 4.91,8.51"
         style="fill:#689f63;fill-opacity:1;fill-rule:evenodd;stroke:none"
         id="path70" /><g
         id="g72"><g
           id="g74"
           clip-path="url(#clipPath78)"><path
             d="m 2390.32,3733.93 -421.34,-243.15 c -15.76,-9.09 -25.45,-25.88 -25.45,-44.07 v 0 -486.66 c 0,-18.18 9.69,-34.97 25.44,-44.08 v 0 l 421.33,-243.34 c 15.76,-9.09 35.16,-9.09 50.91,0 v 0 l 421.24,243.34 c 15.74,9.11 25.43,25.9 25.43,44.08 v 0 486.68 c 0,18.17 -9.69,34.96 -25.45,44.05 v 0 l -421.23,243.15 c -7.87,4.54 -16.66,6.82 -25.44,6.82 v 0 c -8.79,0 -17.57,-2.28 -25.44,-6.82"
             style="fill:url(#linearGradient86);fill-opacity:1;fill-rule:nonzero;stroke:none"
             id="path88" /></g></g><g
         id="g90"><g
           id="g92"
           clip-path="url(#clipPath96)"><path
             d="m 1954,2929.14 c 4.01,-5.25 9.06,-9.75 14.97,-13.17 v 0 l 361.43,-208.74 60.17,-34.6 c 9,-5.19 19.27,-7.39 29.36,-6.65 v 0 c 3.37,0.28 6.73,0.9 10.01,1.85 v 0 l 444.3,813.57 c -3.4,3.65 -7.36,6.82 -11.81,9.38 v 0 l -275.88,159.25 -145.79,83.9 c -4.17,2.4 -8.64,4.13 -13.23,5.26 v 0"
             style="fill:url(#linearGradient108);fill-opacity:1;fill-rule:nonzero;stroke:none"
             id="path110" /></g></g><g
         id="g112"><g
           id="g114"
           clip-path="url(#clipPath118)"><path
             d="m 2410.65,3740.48 c -7.05,-0.7 -13.98,-2.89 -20.33,-6.55 v 0 l -420.14,-242.45 452.93,-825.13 c 6.28,0.91 12.43,3.01 18.1,6.28 v 0 l 421.24,243.34 c 13.01,7.53 21.89,20.31 24.58,34.77 v 0 l -461.78,788.9 c -3.41,0.68 -6.88,1.02 -10.35,1.02 v 0 c -1.42,0 -2.84,-0.06 -4.25,-0.18"
             style="fill:url(#linearGradient130);fill-opacity:1;fill-rule:nonzero;stroke:none"
             id="path132" /></g></g><g
         id="g134"><g
           id="g136"
           clip-path="url(#clipPath140)"><g
             id="g142"
             clip-path="url(#clipPath146)"><path
               d="m 2423,2667 h 2 v -1 h -2 z m 3,0 v 1 h 4 v 1 h 3 v -1 h -2 v -1 z m 7,3 h 3 v -1 h -3 z m 3,0 v 1 h 2 v 1 h 2 v 1 h 2 v -1 h -1 v -1 h -2 v -1 z m 6,4 h 2 v -1 h -2 z m 2,0 v 1 h 1 v 1 h 2 v 1 h 2 v -1 h -1 v -1 h -2 v -1 z m 5,4 h 2 v -1 h -2 z m 2,0 v 1 h 1 v 1 h 2 v -1 h -1 v -1 z m 3,3 h 2 v -1 h -2 z m 2,0 v 1 h 1 v 1 h 2 v 1 h 2 v -1 h -1 v -1 h -2 v -1 z m 5,4 h 2 v -1 h -2 z m 2,0 v 1 h 1 v 1 h 2 v 1 h 2 v -1 h -1 v -1 h -2 v -1 z m 5,4 h 2 v -1 h -2 z m 2,0 v 1 h 1 v 1 h 2 v 1 h 2 v -1 h -1 v -1 h -2 v -1 z m 5,4 h 2 v -1 h -2 z m 2,0 v 1 h 1 v 1 h 2 v -1 h -1 v -1 z m 3,3 h 2 v -1 h -2 z m 2,0 v 1 h 1 v 1 h 2 v 1 h 2 v -1 h -1 v -1 h -2 v -1 z m 5,4 h 2 v -1 h -2 z m 2,0 v 1 h 1 v 1 h 2 v 1 h 2 v -1 h -1 v -1 h -2 v -1 z m 5,4 h 2 v -1 h -2 z m 2,0 v 1 h 1 v 1 h 2 v -1 h -1 v -1 z m 3,3 h 2 v -1 h -2 z m 2,1 h 2 v -1 h -2 z m 2,0 v 1 h 1 v 1 h 2 v -1 h -1 v -1 z m 3,3 h 2 v -1 h -2 z m 2,0 v 1 h 1 v 1 h 2 v 1 h 2 v -1 h -1 v -1 h -2 v -1 z m 5,4 h 2 v -1 h -2 z m 2,0 v 1 h 1 v 1 h 2 v 1 h 2 v -1 h -1 v -1 h -2 v -1 z m 5,4 h 2 v -1 h -2 z m 2,0 v 1 h 1 v 1 h 2 v -1 h -1 v -1 z m 3,3 h 2 v -1 h -2 z m 2,1 h 2 v -1 h -2 z m 2,0 v 1 h 1 v 1 h 2 v -1 h -1 v -1 z m 3,3 h 2 v -1 h -2 z m 2,0 v 1 h 1 v 1 h 2 v 1 h 2 v -1 h -1 v -1 h -2 v -1 z m 5,4 h 2 v -1 h -2 z m 2,0 v 1 h 1 v 1 h 2 v -1 h -1 v -1 z m 3,3 h 2 v -1 h -2 z m 2,1 h 2 v -1 h -2 z m 2,0 v 1 h 1 v 1 h 2 v -1 h -1 v -1 z m 3,3 h 2 v -1 h -2 z m 2,1 h 2 v -1 h -2 z m 2,0 v 1 h 1 v 1 h 2 v -1 h -1 v -1 z m 3,3 h 2 v -1 h -2 z m 2,0 v 1 h 1 v 1 h 2 v 1 h 2 v -1 h -1 v -1 h -2 v -1 z m 5,4 h 2 v -1 h -2 z m 2,0 v 1 h 1 v 1 h 2 v -1 h -1 v -1 z m 3,3 h 2 v -1 h -2 z m 2,1 h 2 v -1 h -2 z m 2,0 v 1 h 1 v 1 h 2 v -1 h -1 v -1 z m 3,3 h 2 v -1 h -2 z m 2,1 h 2 v -1 h -2 z m 2,0 v 1 h 1 v 1 h 2 v -1 h -1 v -1 z m 3,3 h 2 v -1 h -2 z m 2,0 v 1 h 1 v 1 h 2 v -1 h -1 v -1 z m 3,3 h 2 v -1 h -2 z m 2,1 h 2 v -1 h -2 z m 2,0 v 1 h 1 v 1 h 2 v -1 h -1 v -1 z m 3,3 h 2 v -1 h -2 z m 2,1 h 2 v -1 h -2 z m 2,0 v 1 h 1 v 1 h 2 v -1 h -1 v -1 z m 3,3 h 2 v -1 h -2 z m 2,1 h 2 v -1 h -2 z m 2,0 v 1 h 1 v 1 h 2 v -1 h -1 v -1 z m 3,3 h 2 v -1 h -2 z m 2,0 v 1 h 1 v 1 h 2 v -1 h -1 v -1 z m 3,3 h 2 v -1 h -2 z m 2,1 h 2 v -1 h -2 z m 2,0 v 1 h 1 v 1 h 2 v -1 h -1 v -1 z m 3,3 h 2 v -1 h -2 z m 2,1 h 2 v -1 h -2 z m 2,0 v 1 h 1 v 1 h 2 v -1 h -1 v -1 z m 3,3 h 2 v -1 h -2 z m 2,1 h 2 v -1 h -2 z m 2,1 h 1 v -1 h -1 z m 1,1 h 2 v -1 h -2 z m 2,1 h 2 v -1 h -2 z m 2,0 v 1 h 1 v 1 h 2 v -1 h -1 v -1 z m 3,3 h 2 v -1 h -2 z m 2,1 h 2 v -1 h -2 z m 2,0 v 1 h 1 v 1 h 2 v -1 h -1 v -1 z m 3,3 h 2 v -1 h -2 z m 2,1 h 2 v -1 h -2 z m 2,0 v 1 h 1 v 1 h 2 v -1 h -1 v -1 z m 3,3 h 2 v -1 h -2 z m 2,1 h 2 v -1 h -2 z m 2,1 h 1 v -1 h -1 z m 1,1 h 2 v -1 h -2 z m 2,1 h 2 v -1 h -2 z m 2,0 v 1 h 1 v 1 h 2 v -1 h -1 v -1 z m 3,3 h 2 v -1 h -2 z m 2,1 h 2 v -1 h -2 z m 2,0 v 1 h 1 v 1 h 2 v -1 h -1 v -1 z m 3,3 h 2 v -1 h -2 z m 2,1 h 2 v -1 h -2 z m 2,0 v 1 h 1 v 1 h 2 v -1 h -1 v -1 z m 3,3 h 2 v -1 h -2 z m 2,1 h 2 v -1 h -2 z m 2,1 h 1 v -1 h -1 z m 1,1 h 2 v -1 h -2 z m 2,1 h 2 v -1 h -2 z m 2,0 v 1 h 1 v 1 h 2 v -1 h -1 v -1 z m 3,3 h 2 v -1 h -2 z m 2,1 h 2 v -1 h -2 z m 2,0 v 1 h 1 v 1 h 2 v -1 h -1 v -1 z m 3,3 h 2 v -1 h -2 z m 2,1 h 2 v -1 h -2 z m 2,1 h 1 v -1 h -1 z m 1,1 h 2 v -1 h -2 z m 2,1 h 2 v -1 h -2 z m 2,1 h 2 v -1 h -2 z m 2,1 h 1 v -1 h -1 z m 1,1 h 2 v -1 h -2 z m 2,1 h 2 v -1 h -2 z m 2,0 v 1 h 1 v 1 h 2 v -1 h -1 v -1 z m 3,3 h 2 v -1 h -2 z m 2,1 h 2 v -1 h -2 z m 2,0 v 1 h 1 v 1 h 2 v -1 h -1 v -1 z m 3,3 h 2 v -1 h -2 z m 2,1 h 2 v -1 h -2 z m 2,1 h 1 v -1 h -1 z m 1,1 h 2 v -1 h -2 z m 2,1 h 2 v -1 h -2 z m 2,1 h 2 v -1 h -2 z m 2,1 h 1 v -1 h -1 z m 1,1 h 2 v -1 h -2 z m 2,1 h 2 v -1 h -2 z m 2,0 v 1 h 1 v 1 h 2 v -1 h -1 v -1 z m 3,3 h 2 v -1 h -2 z m 2,1 h 2 v -1 h -2 z m 2,1 h 1 v -1 h -1 z m 1,1 h 2 v -1 h -2 z m 2,1 h 2 v -1 h -2 z m 2,1 h 2 v -1 h -2 z m 2,1 h 1 v -1 h -1 z m 1,1 h 2 v -1 h -2 z m 2,1 h 2 v -1 h -2 z m 2,1 h 2 v -1 h -2 z m 2,1 h 1 v -1 h -1 z m 1,1 h 2 v -1 h -2 z m 2,1 h 2 v -1 h -2 z m 2,0 v 1 h 1 v 1 h 2 v -1 h -1 v -1 z m 3,3 h 2 v -1 h -2 z m 2,1 h 2 v -1 h -2 z m 2,1 h 1 v -1 h -1 z m 1,1 h 2 v -1 h -2 z m 2,1 h 2 v -1 h -2 z m 2,1 h 2 v -1 h -2 z m 2,1 h 1 v -1 h -1 z m 1,1 h 2 v -1 h -2 z m 2,1 h 2 v -1 h -2 z m 2,1 h 2 v -1 h -2 z m 2,1 h 1 v -1 h -1 z m 1,1 h 2 v -1 h -2 z m 2,1 h 2 v -1 h -2 z m 2,1 h 1 v -1 h -1 z m 1,1 h 2 v -1 h -2 z m 2,1 h 2 v -1 h -2 z m 2,1 h 2 v -1 h -2 z m 2,1 h 1 v -1 h -1 z m 1,1 h 2 v -1 h -2 z m 2,1 h 2 v -1 h -2 z m 2,1 h 2 v -1 h -2 z m 2,1 h 1 v -1 h -1 z m 1,1 h 2 v -1 h -2 z m 2,1 h 2 v -1 h -2 z m 2,1 h 2 v -1 h -2 z m 2,1 h 1 v -1 h -1 z m 1,1 h 2 v -1 h -2 z m 2,1 h 2 v -1 h -2 z m 2,1 h 1 v -1 h -1 z m 1,1 h 2 v -1 h -2 z m 2,1 h 2 v -1 h -2 z m 2,1 h 2 v -1 h -2 z m 2,1 h 1 v -1 h -1 z m 1,1 h 2 v -1 h -2 z m 2,1 h 2 v -1 h -2 z m 2,1 h 2 v -1 h -2 z m 2,1 h 1 v -1 h -1 z m 1,1 h 2 v -1 h -2 z m 2,1 h 2 v -1 h -2 z m 2,1 h 1 v -1 h -1 z m 2,1 h 1 v -1 h -1 z m 1,1 h 2 v -1 h -2 z m 2,1 h 2 v -1 h -2 z m 2,1 h 1 v -1 h -1 z m 1,1 h 2 v -1 h -2 z m 2,1 h 2 v -1 h -2 z m 2,1 h 2 v -1 h -2 z m 2,1 h 1 v -1 h -1 z m 1,1 h 2 v -1 h -2 z m 2,1 h 2 v -1 h -2 z m 2,1 h 2 v -1 h -2 z m 2,1 h 1 v -1 h -1 z m 1,1 h 2 v -1 h -2 z m 2,1 h 2 v -1 h -2 z m 2,1 h 1 v -1 h -1 z m 1,1 h 1 v -1 h -1 z m 2,1 h 1 v -1 h -1 z m 1,1 h 1 v -1 h -1 z m 1,1 h 1 v -1 h -1 z m 1,1 h 1 v -1 h -1 z m 1,1 h 1 v -1 h -1 z m 1,1 h 1 v -1 h -1 z m 1,1 h 1 v -1 h -1 z m 1,1 h 1 v -1 h -1 z m 1,1 h 1 v -1 h -1 z m 5,7 h 1 v -1 h -1 z"
               style="fill:url(#linearGradient158);fill-opacity:1;fill-rule:nonzero;stroke:none"
               id="path160" /><path
               d="m 2423,2667 h 2 v -1 h -2 z m 3,0 v 1 h 4 v 1 h 3 v -1 h -2 v -1 z m 7,3 h 3 v -1 h -3 z m 3,0 v 1 h 2 v 1 h 2 v 1 h 2 v -1 h -1 v -1 h -2 v -1 z m 6,4 h 2 v -1 h -2 z m 2,0 v 1 h 1 v 1 h 2 v 1 h 2 v -1 h -1 v -1 h -2 v -1 z m 5,4 h 2 v -1 h -2 z m 2,0 v 1 h 1 v 1 h 2 v -1 h -1 v -1 z m 3,3 h 2 v -1 h -2 z m 2,0 v 1 h 1 v 1 h 2 v 1 h 2 v -1 h -1 v -1 h -2 v -1 z m 5,4 h 2 v -1 h -2 z m 2,0 v 1 h 1 v 1 h 2 v 1 h 2 v -1 h -1 v -1 h -2 v -1 z m 5,4 h 2 v -1 h -2 z m 2,0 v 1 h 1 v 1 h 2 v 1 h 2 v -1 h -1 v -1 h -2 v -1 z m 5,4 h 2 v -1 h -2 z m 2,0 v 1 h 1 v 1 h 2 v -1 h -1 v -1 z m 3,3 h 2 v -1 h -2 z m 2,0 v 1 h 1 v 1 h 2 v 1 h 2 v -1 h -1 v -1 h -2 v -1 z m 5,4 h 2 v -1 h -2 z m 2,0 v 1 h 1 v 1 h 2 v 1 h 2 v -1 h -1 v -1 h -2 v -1 z m 5,4 h 2 v -1 h -2 z m 2,0 v 1 h 1 v 1 h 2 v -1 h -1 v -1 z m 3,3 h 2 v -1 h -2 z m 2,1 h 2 v -1 h -2 z m 2,0 v 1 h 1 v 1 h 2 v -1 h -1 v -1 z m 3,3 h 2 v -1 h -2 z m 2,0 v 1 h 1 v 1 h 2 v 1 h 2 v -1 h -1 v -1 h -2 v -1 z m 5,4 h 2 v -1 h -2 z m 2,0 v 1 h 1 v 1 h 2 v 1 h 2 v -1 h -1 v -1 h -2 v -1 z m 5,4 h 2 v -1 h -2 z m 2,0 v 1 h 1 v 1 h 2 v -1 h -1 v -1 z m 3,3 h 2 v -1 h -2 z m 2,1 h 2 v -1 h -2 z m 2,0 v 1 h 1 v 1 h 2 v -1 h -1 v -1 z m 3,3 h 2 v -1 h -2 z m 2,0 v 1 h 1 v 1 h 2 v 1 h 2 v -1 h -1 v -1 h -2 v -1 z m 5,4 h 2 v -1 h -2 z m 2,0 v 1 h 1 v 1 h 2 v -1 h -1 v -1 z m 3,3 h 2 v -1 h -2 z m 2,1 h 2 v -1 h -2 z m 2,0 v 1 h 1 v 1 h 2 v -1 h -1 v -1 z m 3,3 h 2 v -1 h -2 z m 2,1 h 2 v -1 h -2 z m 2,0 v 1 h 1 v 1 h 2 v -1 h -1 v -1 z m 3,3 h 2 v -1 h -2 z m 2,0 v 1 h 1 v 1 h 2 v 1 h 2 v -1 h -1 v -1 h -2 v -1 z m 5,4 h 2 v -1 h -2 z m 2,0 v 1 h 1 v 1 h 2 v -1 h -1 v -1 z m 3,3 h 2 v -1 h -2 z m 2,1 h 2 v -1 h -2 z m 2,0 v 1 h 1 v 1 h 2 v -1 h -1 v -1 z m 3,3 h 2 v -1 h -2 z m 2,1 h 2 v -1 h -2 z m 2,0 v 1 h 1 v 1 h 2 v -1 h -1 v -1 z m 3,3 h 2 v -1 h -2 z m 2,0 v 1 h 1 v 1 h 2 v -1 h -1 v -1 z m 3,3 h 2 v -1 h -2 z m 2,1 h 2 v -1 h -2 z m 2,0 v 1 h 1 v 1 h 2 v -1 h -1 v -1 z m 3,3 h 2 v -1 h -2 z m 2,1 h 2 v -1 h -2 z m 2,0 v 1 h 1 v 1 h 2 v -1 h -1 v -1 z m 3,3 h 2 v -1 h -2 z m 2,1 h 2 v -1 h -2 z m 2,0 v 1 h 1 v 1 h 2 v -1 h -1 v -1 z m 3,3 h 2 v -1 h -2 z m 2,0 v 1 h 1 v 1 h 2 v -1 h -1 v -1 z m 3,3 h 2 v -1 h -2 z m 2,1 h 2 v -1 h -2 z m 2,0 v 1 h 1 v 1 h 2 v -1 h -1 v -1 z m 3,3 h 2 v -1 h -2 z m 2,1 h 2 v -1 h -2 z m 2,0 v 1 h 1 v 1 h 2 v -1 h -1 v -1 z m 3,3 h 2 v -1 h -2 z m 2,1 h 2 v -1 h -2 z m 2,1 h 1 v -1 h -1 z m 1,1 h 2 v -1 h -2 z m 2,1 h 2 v -1 h -2 z m 2,0 v 1 h 1 v 1 h 2 v -1 h -1 v -1 z m 3,3 h 2 v -1 h -2 z m 2,1 h 2 v -1 h -2 z m 2,0 v 1 h 1 v 1 h 2 v -1 h -1 v -1 z m 3,3 h 2 v -1 h -2 z m 2,1 h 2 v -1 h -2 z m 2,0 v 1 h 1 v 1 h 2 v -1 h -1 v -1 z m 3,3 h 2 v -1 h -2 z m 2,1 h 2 v -1 h -2 z m 2,1 h 1 v -1 h -1 z m 1,1 h 2 v -1 h -2 z m 2,1 h 2 v -1 h -2 z m 2,0 v 1 h 1 v 1 h 2 v -1 h -1 v -1 z m 3,3 h 2 v -1 h -2 z m 2,1 h 2 v -1 h -2 z m 2,0 v 1 h 1 v 1 h 2 v -1 h -1 v -1 z m 3,3 h 2 v -1 h -2 z m 2,1 h 2 v -1 h -2 z m 2,0 v 1 h 1 v 1 h 2 v -1 h -1 v -1 z m 3,3 h 2 v -1 h -2 z m 2,1 h 2 v -1 h -2 z m 2,1 h 1 v -1 h -1 z m 1,1 h 2 v -1 h -2 z m 2,1 h 2 v -1 h -2 z m 2,0 v 1 h 1 v 1 h 2 v -1 h -1 v -1 z m 3,3 h 2 v -1 h -2 z m 2,1 h 2 v -1 h -2 z m 2,0 v 1 h 1 v 1 h 2 v -1 h -1 v -1 z m 3,3 h 2 v -1 h -2 z m 2,1 h 2 v -1 h -2 z m 2,1 h 1 v -1 h -1 z m 1,1 h 2 v -1 h -2 z m 2,1 h 2 v -1 h -2 z m 2,1 h 2 v -1 h -2 z m 2,1 h 1 v -1 h -1 z m 1,1 h 2 v -1 h -2 z m 2,1 h 2 v -1 h -2 z m 2,0 v 1 h 1 v 1 h 2 v -1 h -1 v -1 z m 3,3 h 2 v -1 h -2 z m 2,1 h 2 v -1 h -2 z m 2,0 v 1 h 1 v 1 h 2 v -1 h -1 v -1 z m 3,3 h 2 v -1 h -2 z m 2,1 h 2 v -1 h -2 z m 2,1 h 1 v -1 h -1 z m 1,1 h 2 v -1 h -2 z m 2,1 h 2 v -1 h -2 z m 2,1 h 2 v -1 h -2 z m 2,1 h 1 v -1 h -1 z m 1,1 h 2 v -1 h -2 z m 2,1 h 2 v -1 h -2 z m 2,0 v 1 h 1 v 1 h 2 v -1 h -1 v -1 z m 3,3 h 2 v -1 h -2 z m 2,1 h 2 v -1 h -2 z m 2,1 h 1 v -1 h -1 z m 1,1 h 2 v -1 h -2 z m 2,1 h 2 v -1 h -2 z m 2,1 h 2 v -1 h -2 z m 2,1 h 1 v -1 h -1 z m 1,1 h 2 v -1 h -2 z m 2,1 h 2 v -1 h -2 z m 2,1 h 2 v -1 h -2 z m 2,1 h 1 v -1 h -1 z m 1,1 h 2 v -1 h -2 z m 2,1 h 2 v -1 h -2 z m 2,0 v 1 h 1 v 1 h 2 v -1 h -1 v -1 z m 3,3 h 2 v -1 h -2 z m 2,1 h 2 v -1 h -2 z m 2,1 h 1 v -1 h -1 z m 1,1 h 2 v -1 h -2 z m 2,1 h 2 v -1 h -2 z m 2,1 h 2 v -1 h -2 z m 2,1 h 1 v -1 h -1 z m 1,1 h 2 v -1 h -2 z m 2,1 h 2 v -1 h -2 z m 2,1 h 2 v -1 h -2 z m 2,1 h 1 v -1 h -1 z m 1,1 h 2 v -1 h -2 z m 2,1 h 2 v -1 h -2 z m 2,1 h 1 v -1 h -1 z m 1,1 h 2 v -1 h -2 z m 2,1 h 2 v -1 h -2 z m 2,1 h 2 v -1 h -2 z m 2,1 h 1 v -1 h -1 z m 1,1 h 2 v -1 h -2 z m 2,1 h 2 v -1 h -2 z m 2,1 h 2 v -1 h -2 z m 2,1 h 1 v -1 h -1 z m 1,1 h 2 v -1 h -2 z m 2,1 h 2 v -1 h -2 z m 2,1 h 2 v -1 h -2 z m 2,1 h 1 v -1 h -1 z m 1,1 h 2 v -1 h -2 z m 2,1 h 2 v -1 h -2 z m 2,1 h 1 v -1 h -1 z m 1,1 h 2 v -1 h -2 z m 2,1 h 2 v -1 h -2 z m 2,1 h 2 v -1 h -2 z m 2,1 h 1 v -1 h -1 z m 1,1 h 2 v -1 h -2 z m 2,1 h 2 v -1 h -2 z m 2,1 h 2 v -1 h -2 z m 2,1 h 1 v -1 h -1 z m 1,1 h 2 v -1 h -2 z m 2,1 h 2 v -1 h -2 z m 2,1 h 1 v -1 h -1 z m 2,1 h 1 v -1 h -1 z m 1,1 h 2 v -1 h -2 z m 2,1 h 2 v -1 h -2 z m 2,1 h 1 v -1 h -1 z m 1,1 h 2 v -1 h -2 z m 2,1 h 2 v -1 h -2 z m 2,1 h 2 v -1 h -2 z m 2,1 h 1 v -1 h -1 z m 1,1 h 2 v -1 h -2 z m 2,1 h 2 v -1 h -2 z m 2,1 h 2 v -1 h -2 z m 2,1 h 1 v -1 h -1 z m 1,1 h 2 v -1 h -2 z m 2,1 h 2 v -1 h -2 z m 2,1 h 1 v -1 h -1 z m 1,1 h 1 v -1 h -1 z m 2,1 h 1 v -1 h -1 z m 1,1 h 1 v -1 h -1 z m 1,1 h 1 v -1 h -1 z m 1,1 h 1 v -1 h -1 z m 1,1 h 1 v -1 h -1 z m 1,1 h 1 v -1 h -1 z m 1,1 h 1 v -1 h -1 z m 1,1 h 1 v -1 h -1 z m 1,1 h 1 v -1 h -1 z m 5,7 h 1 v -1 h -1 z"
               style="fill:url(#linearGradient168);fill-opacity:1;fill-rule:nonzero;stroke:none"
               id="path170" /></g></g></g></g></g></svg>
