<?xml version="1.0" encoding="UTF-8" standalone="no"?>
<svg
   xmlns:dc="http://purl.org/dc/elements/1.1/"
   xmlns:cc="http://creativecommons.org/ns#"
   xmlns:rdf="http://www.w3.org/1999/02/22-rdf-syntax-ns#"
   xmlns:svg="http://www.w3.org/2000/svg"
   xmlns="http://www.w3.org/2000/svg"
   xmlns:sodipodi="http://sodipodi.sourceforge.net/DTD/sodipodi-0.dtd"
   xmlns:inkscape="http://www.inkscape.org/namespaces/inkscape"
   version="1.1"
   id="Layer_1"
   x="0px"
   y="0px"
   viewBox="0 0 186.2 200"
   xml:space="preserve"
   sodipodi:docname="angular-logo.svg"
   width="186.2"
   height="200"
   inkscape:version="1.0.2 (e86c8708, 2021-01-15)"><metadata
   id="metadata171"><rdf:RDF><cc:Work
       rdf:about=""><dc:format>image/svg+xml</dc:format><dc:type
         rdf:resource="http://purl.org/dc/dcmitype/StillImage" /></cc:Work></rdf:RDF></metadata><defs
   id="defs169" /><sodipodi:namedview
   pagecolor="#ffffff"
   bordercolor="#666666"
   borderopacity="1"
   objecttolerance="10"
   gridtolerance="10"
   guidetolerance="10"
   inkscape:pageopacity="0"
   inkscape:pageshadow="2"
   inkscape:window-width="1280"
   inkscape:window-height="755"
   id="namedview167"
   showgrid="false"
   inkscape:zoom="2.188"
   inkscape:cx="94.928154"
   inkscape:cy="121.50823"
   inkscape:window-x="0"
   inkscape:window-y="23"
   inkscape:window-maximized="1"
   inkscape:current-layer="Layer_1" />
<style
   type="text/css"
   id="style156">
	.st0{fill:#DD0031;}
	.st1{fill:#C3002F;}
	.st2{fill:#FFFFFF;}
</style>
<g
   id="g164"
   transform="translate(-31.9,-30)">
	<polygon
   class="st0"
   points="125,30 31.9,63.2 46.1,186.3 125,230 125,230 125,230 203.9,186.3 218.1,63.2 125,30 "
   id="polygon158" />
	<polygon
   class="st1"
   points="125,52.1 125,153.4 125,153.4 125,230 125,230 203.9,186.3 218.1,63.2 125,30 125,52.2 "
   id="polygon160" />
	<path
   class="st2"
   d="M 125,52.1 66.8,182.6 v 0 h 21.7 v 0 l 11.7,-29.2 h 49.4 l 11.7,29.2 v 0 H 183 v 0 L 125,52.1 v 0 0 z m 17,83.3 h -34 l 17,-40.9 z"
   id="path162" />
</g>
</svg>
