<?xml version="1.0" encoding="UTF-8" standalone="no"?>
<svg
   xmlns:dc="http://purl.org/dc/elements/1.1/"
   xmlns:cc="http://creativecommons.org/ns#"
   xmlns:rdf="http://www.w3.org/1999/02/22-rdf-syntax-ns#"
   xmlns:svg="http://www.w3.org/2000/svg"
   xmlns="http://www.w3.org/2000/svg"
   xmlns:sodipodi="http://sodipodi.sourceforge.net/DTD/sodipodi-0.dtd"
   xmlns:inkscape="http://www.inkscape.org/namespaces/inkscape"
   width="391.69333"
   height="392.18613"
   viewBox="0 0 391.69333 392.18613"
   fill="none"
   version="1.1"
   id="svg535"
   sodipodi:docname="vite-logo.svg"
   inkscape:version="1.0.2 (e86c8708, 2021-01-15)">
  <metadata
     id="metadata539">
    <rdf:RDF>
      <cc:Work
         rdf:about="">
        <dc:format>image/svg+xml</dc:format>
        <dc:type
           rdf:resource="http://purl.org/dc/dcmitype/StillImage" />
      </cc:Work>
    </rdf:RDF>
  </metadata>
  <sodipodi:namedview
     pagecolor="#ffffff"
     bordercolor="#666666"
     borderopacity="1"
     objecttolerance="10"
     gridtolerance="10"
     guidetolerance="10"
     inkscape:pageopacity="0"
     inkscape:pageshadow="2"
     inkscape:window-width="1280"
     inkscape:window-height="755"
     id="namedview537"
     showgrid="false"
     inkscape:zoom="1.4084158"
     inkscape:cx="195.75623"
     inkscape:cy="200.52215"
     inkscape:window-x="0"
     inkscape:window-y="23"
     inkscape:window-maximized="1"
     inkscape:current-layer="svg535" />
  <path
     d="m 390.39723,58.046752 -183.998,329.020398 c -3.799,6.793 -13.559,6.833 -17.415,0.073 L 1.3379261,58.078452 c -4.20083,-7.3667 2.0985,-16.2898 10.4463999,-14.7977 l 184.194904,32.9238 c 1.175,0.21 2.378,0.208 3.553,-0.0061 l 180.343,-32.8705 c 8.32,-1.5164 14.649,7.3376 10.522,14.7188 z"
     fill="url(#paint0_linear)"
     id="path517"
     style="fill:url(#paint0_linear)" />
  <path
     d="M 283.72123,0.09655224 147.55723,26.777352 c -2.238,0.4385 -3.895,2.3351 -4.03,4.6112 l -8.376,141.463598 c -0.197,3.332 2.863,5.918 6.115,5.168 l 37.91,-8.749 c 3.547,-0.818 6.752,2.306 6.023,5.873 l -11.263,55.153 c -0.758,3.712 2.727,6.886 6.352,5.785 l 23.415,-7.114 c 3.63,-1.102 7.118,2.081 6.35,5.796 l -17.899,86.633 c -1.12,5.419 6.088,8.374 9.094,3.728 l 2.008,-3.103 110.954,-221.428 c 1.858,-3.707498 -1.346,-7.934998 -5.418,-7.149198 l -39.022,7.531198 c -3.667,0.707 -6.787,-2.707998 -5.752,-6.295698 l 25.469,-88.2914098 c 1.036,-3.59375 -2.095,-7.01170896 -5.766,-6.29248996 z"
     fill="url(#paint1_linear)"
     id="path519"
     style="fill:url(#paint1_linear)" />
  <defs
     id="defs533">
    <linearGradient
       id="paint0_linear"
       x1="6.0001702"
       y1="32.999901"
       x2="235"
       y2="344"
       gradientUnits="userSpaceOnUse"
       gradientTransform="translate(-9.2437739,-1.4778478)">
      <stop
         stop-color="#41D1FF"
         id="stop521" />
      <stop
         offset="1"
         stop-color="#BD34FE"
         id="stop523" />
    </linearGradient>
    <linearGradient
       id="paint1_linear"
       x1="194.651"
       y1="8.8181801"
       x2="236.076"
       y2="292.98901"
       gradientUnits="userSpaceOnUse"
       gradientTransform="translate(-9.2437739,-1.4778478)">
      <stop
         stop-color="#FFEA83"
         id="stop526" />
      <stop
         offset="0.0833333"
         stop-color="#FFDD35"
         id="stop528" />
      <stop
         offset="1"
         stop-color="#FFA800"
         id="stop530" />
    </linearGradient>
  </defs>
</svg>
