<?xml version="1.0" standalone="no"?>
<!DOCTYPE svg PUBLIC "-//W3C//DTD SVG 20010904//EN"
 "http://www.w3.org/TR/2001/REC-SVG-20010904/DTD/svg10.dtd">
<svg version="1.0" xmlns="http://www.w3.org/2000/svg"
 width="612.000000pt" height="612.000000pt" viewBox="0 0 612.000000 612.000000"
 preserveAspectRatio="xMidYMid meet">
<metadata>
Created by potrace 1.14, written by Peter Selinger 2001-2017
</metadata>
<g transform="translate(0.000000,612.000000) scale(0.100000,-0.100000)"
fill="#000000" stroke="none">
<path d="M3370 4964 c-638 -90 -1179 -478 -1463 -1049 -170 -341 -232 -766
-167 -1140 27 -150 99 -377 155 -485 15 -30 15 -30 -12 -41 -15 -6 -183 -69
-373 -141 -385 -145 -784 -302 -875 -343 l-60 -27 50 -44 c60 -54 162 -108
241 -129 33 -8 100 -15 154 -15 132 0 253 31 381 95 l50 26 67 -59 c83 -72
136 -109 229 -155 234 -118 532 -114 810 9 l58 26 -25 19 c-14 10 -62 45 -108
77 -92 65 -272 219 -272 233 0 4 28 27 61 49 l62 41 76 -40 c181 -94 407 -148
651 -158 172 -6 232 2 314 43 198 99 329 313 406 658 46 209 61 366 67 742 l6
342 -137 198 c-98 143 -133 200 -122 202 55 12 480 -101 683 -180 l103 -41
-34 -38 c-45 -49 -54 -96 -30 -146 23 -45 76 -83 116 -83 75 0 138 61 138 133
0 20 2 37 5 37 3 0 42 -23 88 -51 318 -196 508 -425 593 -714 22 -75 27 -116
31 -245 5 -133 2 -167 -15 -240 -50 -206 -168 -413 -351 -613 l-66 -72 60 52
c308 263 517 619 607 1034 19 92 22 133 23 354 0 222 -3 263 -23 363 -80 396
-305 791 -593 1041 -292 254 -594 398 -974 467 -128 23 -450 28 -585 8z m-290
-764 c40 -80 41 -81 115 -117 41 -21 75 -43 75 -50 0 -7 -32 -29 -70 -48 -72
-36 -107 -75 -140 -155 -21 -50 -44 -38 -87 42 -37 70 -39 72 -115 107 -47 22
-78 42 -78 51 0 9 30 30 74 52 73 36 76 39 118 117 24 45 49 81 55 81 7 0 31
-36 53 -80z m227 -377 c26 -26 33 -38 23 -41 -7 -3 -23 -15 -35 -28 l-22 -24
-37 35 -37 35 25 11 c14 7 28 20 31 31 8 24 10 24 52 -19z m-573 -491 c18 -36
34 -53 65 -67 23 -10 41 -24 41 -32 0 -7 -19 -22 -43 -32 -33 -14 -47 -28 -61
-60 -24 -52 -47 -53 -70 -3 -13 28 -30 45 -62 60 -46 23 -57 47 -25 57 34 10
71 46 91 86 11 21 25 39 30 39 5 0 21 -22 34 -48z"/>
</g>
</svg>
